<svg width="17" height="16" viewBox="0 0 17 16" fill="none" xmlns="http://www.w3.org/2000/svg">
<path fill-rule="evenodd" clip-rule="evenodd" d="M8.49967 1.33301C4.81967 1.33301 1.83301 4.31967 1.83301 7.99967C1.83301 11.6797 4.81967 14.6663 8.49967 14.6663C12.1797 14.6663 15.1663 11.6797 15.1663 7.99967C15.1663 4.31967 12.1797 1.33301 8.49967 1.33301ZM6.69283 10.86L4.29949 8.46671C4.03949 8.20671 4.03949 7.78671 4.29949 7.52671C4.55949 7.26671 4.97949 7.26671 5.23949 7.52671L7.16616 9.44671L11.7528 4.86004C12.0128 4.60004 12.4328 4.60004 12.6928 4.86004C12.9528 5.12004 12.9528 5.54004 12.6928 5.80004L7.63283 10.86C7.37949 11.12 6.95283 11.12 6.69283 10.86Z" fill="#ED5A6F"/>
</svg>
