<svg width="277" height="244" viewBox="0 0 277 244" fill="none" xmlns="http://www.w3.org/2000/svg">
<rect width="277" height="244" rx="8" fill="#1E1F20"/>
<path d="M99.122 46.4234H103.87C104.428 46.4234 104.708 46.0045 104.708 45.5856V44.6081H131.239C122.442 47.4009 115.879 55.0811 114.622 64.4369H113.505C112.946 64.4369 112.667 64.8559 112.667 65.2748V70.0225C112.667 70.5811 113.086 70.8604 113.505 70.8604H118.253C118.811 70.8604 119.09 70.4414 119.09 70.0225V65.2748C119.09 64.7162 118.672 64.4369 118.253 64.4369H117.275C118.672 55.0811 126.072 47.5405 135.568 46.2838C135.708 46.4234 135.987 46.4234 136.127 46.4234H140.874C141.154 46.4234 141.293 46.2838 141.433 46.2838C150.789 47.5405 158.329 55.0811 159.726 64.4369H158.748C158.19 64.4369 157.91 64.8559 157.91 65.2748V70.0225C157.91 70.5811 158.329 70.8604 158.748 70.8604H163.496C164.054 70.8604 164.334 70.4414 164.334 70.0225V65.2748C164.334 64.7162 163.915 64.4369 163.496 64.4369H162.379C161.122 55.0811 154.559 47.4009 145.762 44.6081H172.293V45.5856C172.293 46.1441 172.712 46.4234 173.131 46.4234H177.879C178.437 46.4234 178.717 46.0045 178.717 45.5856V40.8378C178.717 40.2793 178.298 40 177.879 40H173.131C172.572 40 172.293 40.4189 172.293 40.8378V41.8153H141.712V40.8378C141.712 40.2793 141.293 40 140.874 40H136.127C135.568 40 135.289 40.4189 135.289 40.8378V41.8153H104.708V40.8378C104.708 40.2793 104.289 40 103.87 40H99.122C98.5635 40 98.2842 40.4189 98.2842 40.8378V45.5856C98.2842 46.1441 98.7031 46.4234 99.122 46.4234Z" fill="url(#paint0_linear_1326_72165)"/>
<path d="M149.113 76.4463C149.113 79.2713 148.016 81.822 146.191 83.7283C145.376 84.5801 144.784 85.6603 144.784 86.8393C144.784 88.8886 143.123 90.5499 141.073 90.5499H135.927C133.878 90.5499 132.217 88.8886 132.217 86.8393C132.217 85.6603 131.625 84.5801 130.81 83.7283C128.985 81.822 127.888 79.2713 127.888 76.4463C127.888 74.2121 128.586 72.1175 129.843 70.3022L137.218 57.639C137.234 57.6117 137.263 57.595 137.295 57.595C137.343 57.595 137.383 57.6347 137.383 57.6836V68.5715C137.383 70.2071 136.177 71.6162 135.427 73.0695C135.16 73.587 135.009 74.1681 135.009 74.7706C135.149 76.586 136.545 77.9823 138.361 78.122C140.455 78.2616 142.131 76.586 142.131 74.631C142.131 74.0519 141.992 73.5126 141.744 73.0353C140.99 71.5839 139.757 70.2071 139.757 68.5715V57.595C139.757 57.4121 139.945 57.6782 140.037 57.8362L147.298 70.3022C148.554 72.1175 149.113 74.2121 149.113 76.4463Z" fill="url(#paint1_linear_1326_72165)"/>
<path d="M147.857 102C148.415 102 148.834 101.442 148.695 101.023L147.019 92.7841C146.879 92.3652 146.6 92.0859 146.181 92.0859H130.681C130.405 92.0859 130.129 92.2075 129.972 92.4104C129.809 92.6227 129.816 92.9163 129.763 93.1787L128.168 101.023C128.028 101.581 128.447 102 129.006 102H147.857Z" fill="url(#paint2_linear_1326_72165)"/>
<path d="M56.7238 136.299L56.7148 138H48.6328V125.04H56.7148V126.741H50.7478V130.647H55.5178V132.294H50.7478V136.299H56.7238ZM64.1513 131.079C63.8813 130.731 63.5843 130.488 63.2603 130.35C62.9363 130.212 62.5853 130.143 62.2073 130.143C61.4513 130.143 60.8603 130.422 60.4343 130.98C60.0083 131.532 59.7953 132.351 59.7953 133.437C59.7953 134.001 59.8433 134.484 59.9393 134.886C60.0353 135.282 60.1733 135.606 60.3533 135.858C60.5333 136.11 60.7523 136.293 61.0103 136.407C61.2683 136.521 61.5593 136.578 61.8833 136.578C62.3753 136.578 62.7983 136.473 63.1523 136.263C63.5123 136.047 63.8453 135.744 64.1513 135.354V131.079ZM66.0863 124.68V138H64.9163C64.6583 138 64.4933 137.877 64.4213 137.631L64.2503 136.632C63.8663 137.082 63.4283 137.445 62.9363 137.721C62.4503 137.997 61.8833 138.135 61.2353 138.135C60.7193 138.135 60.2513 138.033 59.8313 137.829C59.4113 137.619 59.0513 137.316 58.7513 136.92C58.4513 136.524 58.2173 136.035 58.0493 135.453C57.8873 134.865 57.8063 134.193 57.8063 133.437C57.8063 132.753 57.8963 132.12 58.0763 131.538C58.2623 130.956 58.5263 130.452 58.8683 130.026C59.2103 129.594 59.6243 129.258 60.1103 129.018C60.6023 128.772 61.1513 128.649 61.7573 128.649C62.2973 128.649 62.7563 128.736 63.1343 128.91C63.5123 129.078 63.8513 129.315 64.1513 129.621V124.68H66.0863ZM70.4684 128.82V138H68.5334V128.82H70.4684ZM70.7924 126.048C70.7924 126.222 70.7564 126.387 70.6844 126.543C70.6184 126.699 70.5254 126.837 70.4054 126.957C70.2854 127.071 70.1444 127.164 69.9824 127.236C69.8264 127.302 69.6584 127.335 69.4784 127.335C69.3044 127.335 69.1394 127.302 68.9834 127.236C68.8334 127.164 68.7014 127.071 68.5874 126.957C68.4734 126.837 68.3804 126.699 68.3084 126.543C68.2424 126.387 68.2094 126.222 68.2094 126.048C68.2094 125.868 68.2424 125.7 68.3084 125.544C68.3804 125.388 68.4734 125.253 68.5874 125.139C68.7014 125.019 68.8334 124.926 68.9834 124.86C69.1394 124.788 69.3044 124.752 69.4784 124.752C69.6584 124.752 69.8264 124.788 69.9824 124.86C70.1444 124.926 70.2854 125.019 70.4054 125.139C70.5254 125.253 70.6184 125.388 70.6844 125.544C70.7564 125.7 70.7924 125.868 70.7924 126.048ZM75.8427 138.144C75.0807 138.144 74.4927 137.931 74.0787 137.505C73.6707 137.073 73.4667 136.467 73.4667 135.687V130.341H72.4587C72.3507 130.341 72.2577 130.308 72.1797 130.242C72.1017 130.17 72.0627 130.065 72.0627 129.927V129.144L73.5477 128.928L73.9707 126.273C74.0007 126.171 74.0517 126.09 74.1237 126.03C74.1957 125.964 74.2917 125.931 74.4117 125.931H75.4017V128.946H77.9487V130.341H75.4017V135.552C75.4017 135.882 75.4827 136.134 75.6447 136.308C75.8067 136.482 76.0227 136.569 76.2927 136.569C76.4427 136.569 76.5717 136.551 76.6797 136.515C76.7877 136.473 76.8807 136.431 76.9587 136.389C77.0367 136.341 77.1027 136.299 77.1567 136.263C77.2167 136.221 77.2737 136.2 77.3277 136.2C77.4357 136.2 77.5227 136.26 77.5887 136.38L78.1647 137.325C77.8647 137.589 77.5107 137.793 77.1027 137.937C76.6947 138.075 76.2747 138.144 75.8427 138.144ZM96.4933 131.52C96.4933 132.48 96.3373 133.365 96.0253 134.175C95.7133 134.985 95.2723 135.684 94.7023 136.272C94.1383 136.854 93.4573 137.31 92.6593 137.64C91.8673 137.97 90.9853 138.135 90.0133 138.135C89.0473 138.135 88.1653 137.97 87.3673 137.64C86.5753 137.31 85.8943 136.854 85.3243 136.272C84.7543 135.684 84.3133 134.985 84.0013 134.175C83.6893 133.365 83.5333 132.48 83.5333 131.52C83.5333 130.56 83.6893 129.675 84.0013 128.865C84.3133 128.055 84.7543 127.356 85.3243 126.768C85.8943 126.18 86.5753 125.721 87.3673 125.391C88.1653 125.061 89.0473 124.896 90.0133 124.896C90.9853 124.896 91.8673 125.061 92.6593 125.391C93.4573 125.721 94.1383 126.18 94.7023 126.768C95.2723 127.356 95.7133 128.055 96.0253 128.865C96.3373 129.675 96.4933 130.56 96.4933 131.52ZM94.3423 131.52C94.3423 130.776 94.2403 130.107 94.0363 129.513C93.8383 128.919 93.5503 128.415 93.1723 128.001C92.8003 127.587 92.3473 127.269 91.8133 127.047C91.2793 126.825 90.6793 126.714 90.0133 126.714C89.3533 126.714 88.7563 126.825 88.2223 127.047C87.6883 127.269 87.2323 127.587 86.8543 128.001C86.4763 128.415 86.1853 128.919 85.9813 129.513C85.7773 130.107 85.6753 130.776 85.6753 131.52C85.6753 132.27 85.7773 132.942 85.9813 133.536C86.1853 134.13 86.4763 134.634 86.8543 135.048C87.2323 135.456 87.6883 135.771 88.2223 135.993C88.7563 136.209 89.3533 136.317 90.0133 136.317C90.6793 136.317 91.2793 136.209 91.8133 135.993C92.3473 135.771 92.8003 135.456 93.1723 135.048C93.5503 134.634 93.8383 134.13 94.0363 133.536C94.2403 132.942 94.3423 132.27 94.3423 131.52ZM100.218 135.696C100.488 136.044 100.782 136.29 101.1 136.434C101.424 136.572 101.775 136.641 102.153 136.641C102.915 136.641 103.509 136.365 103.935 135.813C104.361 135.261 104.574 134.406 104.574 133.248C104.574 132.192 104.388 131.421 104.016 130.935C103.65 130.449 103.125 130.206 102.441 130.206C101.967 130.206 101.553 130.314 101.199 130.53C100.851 130.74 100.524 131.043 100.218 131.439V135.696ZM100.218 130.035C100.596 129.621 101.019 129.291 101.487 129.045C101.955 128.799 102.489 128.676 103.089 128.676C103.623 128.676 104.103 128.781 104.529 128.991C104.961 129.195 105.327 129.492 105.627 129.882C105.927 130.272 106.158 130.746 106.32 131.304C106.482 131.856 106.563 132.48 106.563 133.176C106.563 133.92 106.47 134.598 106.284 135.21C106.104 135.816 105.843 136.338 105.501 136.776C105.159 137.208 104.745 137.544 104.259 137.784C103.773 138.018 103.23 138.135 102.63 138.135C102.336 138.135 102.069 138.105 101.829 138.045C101.589 137.991 101.367 137.91 101.163 137.802C100.959 137.694 100.77 137.565 100.596 137.415C100.428 137.265 100.266 137.094 100.11 136.902L100.029 137.613C99.9985 137.751 99.9445 137.85 99.8665 137.91C99.7885 137.97 99.6805 138 99.5425 138H98.2825V124.68H100.218V130.035ZM110.459 128.82V138.477C110.459 138.861 110.408 139.221 110.306 139.557C110.204 139.899 110.042 140.196 109.82 140.448C109.598 140.7 109.31 140.898 108.956 141.042C108.608 141.186 108.185 141.258 107.687 141.258C107.477 141.258 107.288 141.243 107.12 141.213C106.952 141.183 106.781 141.141 106.607 141.087L106.679 140.034C106.697 139.914 106.748 139.845 106.832 139.827C106.91 139.809 107.063 139.8 107.291 139.8C107.747 139.8 108.065 139.698 108.245 139.494C108.431 139.296 108.524 138.957 108.524 138.477V128.82H110.459ZM110.774 126.048C110.774 126.222 110.738 126.387 110.666 126.543C110.6 126.699 110.507 126.837 110.387 126.957C110.267 127.071 110.129 127.164 109.973 127.236C109.817 127.302 109.649 127.335 109.469 127.335C109.295 127.335 109.13 127.302 108.974 127.236C108.824 127.164 108.689 127.071 108.569 126.957C108.455 126.837 108.365 126.699 108.299 126.543C108.233 126.387 108.2 126.222 108.2 126.048C108.2 125.868 108.233 125.7 108.299 125.544C108.365 125.388 108.455 125.253 108.569 125.139C108.689 125.019 108.824 124.926 108.974 124.86C109.13 124.788 109.295 124.752 109.469 124.752C109.649 124.752 109.817 124.788 109.973 124.86C110.129 124.926 110.267 125.019 110.387 125.139C110.507 125.253 110.6 125.388 110.666 125.544C110.738 125.7 110.774 125.868 110.774 126.048ZM118.911 132.375C118.911 132.051 118.863 131.751 118.767 131.475C118.677 131.193 118.542 130.95 118.362 130.746C118.182 130.536 117.957 130.374 117.687 130.26C117.423 130.14 117.117 130.08 116.769 130.08C116.067 130.08 115.515 130.281 115.113 130.683C114.711 131.085 114.456 131.649 114.348 132.375H118.911ZM114.294 133.563C114.318 134.085 114.399 134.538 114.537 134.922C114.675 135.3 114.858 135.615 115.086 135.867C115.32 136.119 115.596 136.308 115.914 136.434C116.238 136.554 116.598 136.614 116.994 136.614C117.372 136.614 117.699 136.572 117.975 136.488C118.251 136.398 118.491 136.302 118.695 136.2C118.899 136.092 119.073 135.996 119.217 135.912C119.361 135.822 119.493 135.777 119.613 135.777C119.769 135.777 119.889 135.837 119.973 135.957L120.522 136.668C120.294 136.938 120.036 137.166 119.748 137.352C119.46 137.538 119.154 137.691 118.83 137.811C118.506 137.925 118.173 138.006 117.831 138.054C117.489 138.108 117.156 138.135 116.832 138.135C116.196 138.135 115.605 138.03 115.059 137.82C114.519 137.604 114.048 137.289 113.646 136.875C113.25 136.461 112.938 135.948 112.71 135.336C112.488 134.724 112.377 134.019 112.377 133.221C112.377 132.585 112.476 131.991 112.674 131.439C112.878 130.887 113.166 130.407 113.538 129.999C113.916 129.591 114.372 129.27 114.906 129.036C115.446 128.796 116.055 128.676 116.733 128.676C117.297 128.676 117.819 128.769 118.299 128.955C118.779 129.135 119.193 129.402 119.541 129.756C119.889 130.11 120.159 130.545 120.351 131.061C120.549 131.571 120.648 132.153 120.648 132.807C120.648 133.107 120.615 133.308 120.549 133.41C120.483 133.512 120.363 133.563 120.189 133.563H114.294ZM128.941 130.62C128.881 130.698 128.824 130.758 128.77 130.8C128.716 130.842 128.638 130.863 128.536 130.863C128.434 130.863 128.326 130.827 128.212 130.755C128.104 130.683 127.972 130.605 127.816 130.521C127.666 130.431 127.483 130.35 127.267 130.278C127.051 130.206 126.781 130.17 126.457 130.17C126.037 130.17 125.668 130.245 125.35 130.395C125.038 130.545 124.774 130.761 124.558 131.043C124.348 131.319 124.189 131.658 124.081 132.06C123.979 132.456 123.928 132.903 123.928 133.401C123.928 133.917 123.985 134.376 124.099 134.778C124.213 135.18 124.375 135.519 124.585 135.795C124.801 136.071 125.059 136.281 125.359 136.425C125.665 136.569 126.007 136.641 126.385 136.641C126.757 136.641 127.06 136.596 127.294 136.506C127.528 136.416 127.723 136.317 127.879 136.209C128.035 136.101 128.167 136.002 128.275 135.912C128.389 135.822 128.509 135.777 128.635 135.777C128.791 135.777 128.911 135.837 128.995 135.957L129.544 136.668C129.322 136.938 129.076 137.166 128.806 137.352C128.536 137.538 128.251 137.691 127.951 137.811C127.651 137.925 127.339 138.006 127.015 138.054C126.691 138.108 126.364 138.135 126.034 138.135C125.464 138.135 124.93 138.03 124.432 137.82C123.94 137.604 123.508 137.295 123.136 136.893C122.77 136.485 122.479 135.99 122.263 135.408C122.053 134.82 121.948 134.151 121.948 133.401C121.948 132.723 122.044 132.096 122.236 131.52C122.428 130.938 122.707 130.437 123.073 130.017C123.445 129.597 123.904 129.27 124.45 129.036C124.996 128.796 125.626 128.676 126.34 128.676C127.006 128.676 127.591 128.784 128.095 129C128.605 129.216 129.058 129.522 129.454 129.918L128.941 130.62ZM134.044 138.144C133.282 138.144 132.694 137.931 132.28 137.505C131.872 137.073 131.668 136.467 131.668 135.687V130.341H130.66C130.552 130.341 130.459 130.308 130.381 130.242C130.303 130.17 130.264 130.065 130.264 129.927V129.144L131.749 128.928L132.172 126.273C132.202 126.171 132.253 126.09 132.325 126.03C132.397 125.964 132.493 125.931 132.613 125.931H133.603V128.946H136.15V130.341H133.603V135.552C133.603 135.882 133.684 136.134 133.846 136.308C134.008 136.482 134.224 136.569 134.494 136.569C134.644 136.569 134.773 136.551 134.881 136.515C134.989 136.473 135.082 136.431 135.16 136.389C135.238 136.341 135.304 136.299 135.358 136.263C135.418 136.221 135.475 136.2 135.529 136.2C135.637 136.2 135.724 136.26 135.79 136.38L136.366 137.325C136.066 137.589 135.712 137.793 135.304 137.937C134.896 138.075 134.476 138.144 134.044 138.144ZM143.156 130.485C143.108 130.569 143.054 130.629 142.994 130.665C142.934 130.701 142.859 130.719 142.769 130.719C142.667 130.719 142.556 130.689 142.436 130.629C142.316 130.563 142.175 130.491 142.013 130.413C141.851 130.335 141.659 130.266 141.437 130.206C141.221 130.14 140.966 130.107 140.672 130.107C140.432 130.107 140.213 130.137 140.015 130.197C139.823 130.251 139.658 130.332 139.52 130.44C139.388 130.542 139.286 130.665 139.214 130.809C139.142 130.947 139.106 131.097 139.106 131.259C139.106 131.475 139.172 131.655 139.304 131.799C139.436 131.943 139.61 132.069 139.826 132.177C140.042 132.279 140.288 132.372 140.564 132.456C140.84 132.54 141.122 132.63 141.41 132.726C141.698 132.822 141.98 132.933 142.256 133.059C142.532 133.185 142.778 133.341 142.994 133.527C143.21 133.707 143.384 133.929 143.516 134.193C143.648 134.451 143.714 134.766 143.714 135.138C143.714 135.57 143.636 135.969 143.48 136.335C143.324 136.701 143.096 137.019 142.796 137.289C142.496 137.559 142.121 137.769 141.671 137.919C141.227 138.069 140.717 138.144 140.141 138.144C139.823 138.144 139.514 138.114 139.214 138.054C138.92 138 138.638 137.925 138.368 137.829C138.104 137.727 137.855 137.607 137.621 137.469C137.393 137.331 137.189 137.181 137.009 137.019L137.459 136.281C137.513 136.191 137.579 136.122 137.657 136.074C137.741 136.02 137.843 135.993 137.963 135.993C138.089 135.993 138.212 136.035 138.332 136.119C138.458 136.197 138.602 136.284 138.764 136.38C138.932 136.476 139.133 136.566 139.367 136.65C139.601 136.728 139.892 136.767 140.24 136.767C140.528 136.767 140.777 136.734 140.987 136.668C141.197 136.596 141.371 136.5 141.509 136.38C141.647 136.26 141.749 136.125 141.815 135.975C141.881 135.819 141.914 135.654 141.914 135.48C141.914 135.246 141.848 135.054 141.716 134.904C141.584 134.754 141.407 134.625 141.185 134.517C140.969 134.409 140.72 134.313 140.438 134.229C140.162 134.145 139.88 134.055 139.592 133.959C139.304 133.863 139.019 133.752 138.737 133.626C138.461 133.5 138.212 133.341 137.99 133.149C137.774 132.951 137.6 132.714 137.468 132.438C137.336 132.156 137.27 131.814 137.27 131.412C137.27 131.046 137.342 130.698 137.486 130.368C137.636 130.038 137.852 129.747 138.134 129.495C138.422 129.243 138.773 129.045 139.187 128.901C139.607 128.751 140.09 128.676 140.636 128.676C141.254 128.676 141.815 128.775 142.319 128.973C142.823 129.171 143.246 129.441 143.588 129.783L143.156 130.485ZM152.49 126.741V130.89H157.557V132.591H152.49V138H150.375V125.04H158.457V126.741H152.49ZM162.005 124.68V138H160.07V124.68H162.005ZM169.299 133.986C168.609 134.01 168.027 134.067 167.553 134.157C167.079 134.241 166.695 134.352 166.401 134.49C166.107 134.622 165.894 134.781 165.762 134.967C165.636 135.153 165.573 135.357 165.573 135.579C165.573 135.795 165.606 135.981 165.672 136.137C165.744 136.287 165.84 136.413 165.96 136.515C166.086 136.611 166.23 136.683 166.392 136.731C166.56 136.773 166.743 136.794 166.941 136.794C167.445 136.794 167.877 136.701 168.237 136.515C168.603 136.323 168.957 136.047 169.299 135.687V133.986ZM164.169 130.098C165.207 129.132 166.443 128.649 167.877 128.649C168.405 128.649 168.873 128.736 169.281 128.91C169.695 129.078 170.04 129.318 170.316 129.63C170.598 129.942 170.811 130.314 170.955 130.746C171.105 131.172 171.18 131.646 171.18 132.168V138H170.316C170.13 138 169.989 137.973 169.893 137.919C169.797 137.859 169.716 137.742 169.65 137.568L169.461 136.821C169.227 137.031 168.996 137.22 168.768 137.388C168.54 137.55 168.303 137.688 168.057 137.802C167.817 137.916 167.556 138 167.274 138.054C166.998 138.114 166.692 138.144 166.356 138.144C165.984 138.144 165.636 138.093 165.312 137.991C164.994 137.889 164.718 137.736 164.484 137.532C164.25 137.322 164.064 137.064 163.926 136.758C163.794 136.452 163.728 136.092 163.728 135.678C163.728 135.324 163.821 134.979 164.007 134.643C164.199 134.307 164.511 134.007 164.943 133.743C165.381 133.473 165.954 133.251 166.662 133.077C167.376 132.903 168.255 132.804 169.299 132.78V132.168C169.299 131.508 169.158 131.016 168.876 130.692C168.594 130.368 168.18 130.206 167.634 130.206C167.262 130.206 166.95 130.254 166.698 130.35C166.446 130.44 166.227 130.539 166.041 130.647C165.855 130.755 165.69 130.857 165.546 130.953C165.402 131.043 165.249 131.088 165.087 131.088C164.955 131.088 164.841 131.055 164.745 130.989C164.655 130.917 164.58 130.83 164.52 130.728L164.169 130.098ZM186.273 128.82L183.33 138H181.791C181.611 138 181.485 137.883 181.413 137.649L179.586 131.934C179.538 131.772 179.493 131.61 179.451 131.448C179.415 131.286 179.382 131.127 179.352 130.971C179.286 131.295 179.205 131.619 179.109 131.943L177.255 137.649C177.189 137.883 177.048 138 176.832 138H175.365L172.422 128.82H173.952C174.102 128.82 174.225 128.859 174.321 128.937C174.423 129.009 174.489 129.096 174.519 129.198L176.049 134.544C176.109 134.79 176.16 135.03 176.202 135.264C176.25 135.492 176.292 135.72 176.328 135.948C176.388 135.72 176.451 135.492 176.517 135.264C176.583 135.03 176.652 134.79 176.724 134.544L178.443 129.171C178.473 129.063 178.533 128.976 178.623 128.91C178.719 128.838 178.833 128.802 178.965 128.802H179.811C179.949 128.802 180.066 128.838 180.162 128.91C180.258 128.976 180.321 129.063 180.351 129.171L182.025 134.544C182.097 134.79 182.163 135.03 182.223 135.264C182.289 135.498 182.349 135.732 182.403 135.966C182.445 135.738 182.49 135.507 182.538 135.273C182.586 135.039 182.643 134.796 182.709 134.544L184.266 129.198C184.302 129.09 184.368 129 184.464 128.928C184.56 128.856 184.677 128.82 184.815 128.82H186.273ZM189.656 124.68V138H187.721V124.68H189.656ZM198.065 132.375C198.065 132.051 198.017 131.751 197.921 131.475C197.831 131.193 197.696 130.95 197.516 130.746C197.336 130.536 197.111 130.374 196.841 130.26C196.577 130.14 196.271 130.08 195.923 130.08C195.221 130.08 194.669 130.281 194.267 130.683C193.865 131.085 193.61 131.649 193.502 132.375H198.065ZM193.448 133.563C193.472 134.085 193.553 134.538 193.691 134.922C193.829 135.3 194.012 135.615 194.24 135.867C194.474 136.119 194.75 136.308 195.068 136.434C195.392 136.554 195.752 136.614 196.148 136.614C196.526 136.614 196.853 136.572 197.129 136.488C197.405 136.398 197.645 136.302 197.849 136.2C198.053 136.092 198.227 135.996 198.371 135.912C198.515 135.822 198.647 135.777 198.767 135.777C198.923 135.777 199.043 135.837 199.127 135.957L199.676 136.668C199.448 136.938 199.19 137.166 198.902 137.352C198.614 137.538 198.308 137.691 197.984 137.811C197.66 137.925 197.327 138.006 196.985 138.054C196.643 138.108 196.31 138.135 195.986 138.135C195.35 138.135 194.759 138.03 194.213 137.82C193.673 137.604 193.202 137.289 192.8 136.875C192.404 136.461 192.092 135.948 191.864 135.336C191.642 134.724 191.531 134.019 191.531 133.221C191.531 132.585 191.63 131.991 191.828 131.439C192.032 130.887 192.32 130.407 192.692 129.999C193.07 129.591 193.526 129.27 194.06 129.036C194.6 128.796 195.209 128.676 195.887 128.676C196.451 128.676 196.973 128.769 197.453 128.955C197.933 129.135 198.347 129.402 198.695 129.756C199.043 130.11 199.313 130.545 199.505 131.061C199.703 131.571 199.802 132.153 199.802 132.807C199.802 133.107 199.769 133.308 199.703 133.41C199.637 133.512 199.517 133.563 199.343 133.563H193.448ZM207.088 130.485C207.04 130.569 206.986 130.629 206.926 130.665C206.866 130.701 206.791 130.719 206.701 130.719C206.599 130.719 206.488 130.689 206.368 130.629C206.248 130.563 206.107 130.491 205.945 130.413C205.783 130.335 205.591 130.266 205.369 130.206C205.153 130.14 204.898 130.107 204.604 130.107C204.364 130.107 204.145 130.137 203.947 130.197C203.755 130.251 203.59 130.332 203.452 130.44C203.32 130.542 203.218 130.665 203.146 130.809C203.074 130.947 203.038 131.097 203.038 131.259C203.038 131.475 203.104 131.655 203.236 131.799C203.368 131.943 203.542 132.069 203.758 132.177C203.974 132.279 204.22 132.372 204.496 132.456C204.772 132.54 205.054 132.63 205.342 132.726C205.63 132.822 205.912 132.933 206.188 133.059C206.464 133.185 206.71 133.341 206.926 133.527C207.142 133.707 207.316 133.929 207.448 134.193C207.58 134.451 207.646 134.766 207.646 135.138C207.646 135.57 207.568 135.969 207.412 136.335C207.256 136.701 207.028 137.019 206.728 137.289C206.428 137.559 206.053 137.769 205.603 137.919C205.159 138.069 204.649 138.144 204.073 138.144C203.755 138.144 203.446 138.114 203.146 138.054C202.852 138 202.57 137.925 202.3 137.829C202.036 137.727 201.787 137.607 201.553 137.469C201.325 137.331 201.121 137.181 200.941 137.019L201.391 136.281C201.445 136.191 201.511 136.122 201.589 136.074C201.673 136.02 201.775 135.993 201.895 135.993C202.021 135.993 202.144 136.035 202.264 136.119C202.39 136.197 202.534 136.284 202.696 136.38C202.864 136.476 203.065 136.566 203.299 136.65C203.533 136.728 203.824 136.767 204.172 136.767C204.46 136.767 204.709 136.734 204.919 136.668C205.129 136.596 205.303 136.5 205.441 136.38C205.579 136.26 205.681 136.125 205.747 135.975C205.813 135.819 205.846 135.654 205.846 135.48C205.846 135.246 205.78 135.054 205.648 134.904C205.516 134.754 205.339 134.625 205.117 134.517C204.901 134.409 204.652 134.313 204.37 134.229C204.094 134.145 203.812 134.055 203.524 133.959C203.236 133.863 202.951 133.752 202.669 133.626C202.393 133.5 202.144 133.341 201.922 133.149C201.706 132.951 201.532 132.714 201.4 132.438C201.268 132.156 201.202 131.814 201.202 131.412C201.202 131.046 201.274 130.698 201.418 130.368C201.568 130.038 201.784 129.747 202.066 129.495C202.354 129.243 202.705 129.045 203.119 128.901C203.539 128.751 204.022 128.676 204.568 128.676C205.186 128.676 205.747 128.775 206.251 128.973C206.755 129.171 207.178 129.441 207.52 129.783L207.088 130.485ZM214.945 130.485C214.897 130.569 214.843 130.629 214.783 130.665C214.723 130.701 214.648 130.719 214.558 130.719C214.456 130.719 214.345 130.689 214.225 130.629C214.105 130.563 213.964 130.491 213.802 130.413C213.64 130.335 213.448 130.266 213.226 130.206C213.01 130.14 212.755 130.107 212.461 130.107C212.221 130.107 212.002 130.137 211.804 130.197C211.612 130.251 211.447 130.332 211.309 130.44C211.177 130.542 211.075 130.665 211.003 130.809C210.931 130.947 210.895 131.097 210.895 131.259C210.895 131.475 210.961 131.655 211.093 131.799C211.225 131.943 211.399 132.069 211.615 132.177C211.831 132.279 212.077 132.372 212.353 132.456C212.629 132.54 212.911 132.63 213.199 132.726C213.487 132.822 213.769 132.933 214.045 133.059C214.321 133.185 214.567 133.341 214.783 133.527C214.999 133.707 215.173 133.929 215.305 134.193C215.437 134.451 215.503 134.766 215.503 135.138C215.503 135.57 215.425 135.969 215.269 136.335C215.113 136.701 214.885 137.019 214.585 137.289C214.285 137.559 213.91 137.769 213.46 137.919C213.016 138.069 212.506 138.144 211.93 138.144C211.612 138.144 211.303 138.114 211.003 138.054C210.709 138 210.427 137.925 210.157 137.829C209.893 137.727 209.644 137.607 209.41 137.469C209.182 137.331 208.978 137.181 208.798 137.019L209.248 136.281C209.302 136.191 209.368 136.122 209.446 136.074C209.53 136.02 209.632 135.993 209.752 135.993C209.878 135.993 210.001 136.035 210.121 136.119C210.247 136.197 210.391 136.284 210.553 136.38C210.721 136.476 210.922 136.566 211.156 136.65C211.39 136.728 211.681 136.767 212.029 136.767C212.317 136.767 212.566 136.734 212.776 136.668C212.986 136.596 213.16 136.5 213.298 136.38C213.436 136.26 213.538 136.125 213.604 135.975C213.67 135.819 213.703 135.654 213.703 135.48C213.703 135.246 213.637 135.054 213.505 134.904C213.373 134.754 213.196 134.625 212.974 134.517C212.758 134.409 212.509 134.313 212.227 134.229C211.951 134.145 211.669 134.055 211.381 133.959C211.093 133.863 210.808 133.752 210.526 133.626C210.25 133.5 210.001 133.341 209.779 133.149C209.563 132.951 209.389 132.714 209.257 132.438C209.125 132.156 209.059 131.814 209.059 131.412C209.059 131.046 209.131 130.698 209.275 130.368C209.425 130.038 209.641 129.747 209.923 129.495C210.211 129.243 210.562 129.045 210.976 128.901C211.396 128.751 211.879 128.676 212.425 128.676C213.043 128.676 213.604 128.775 214.108 128.973C214.612 129.171 215.035 129.441 215.377 129.783L214.945 130.485ZM219.293 124.68V138H217.358V124.68H219.293ZM229.826 128.82L224.768 140.61C224.702 140.748 224.621 140.856 224.525 140.934C224.435 141.012 224.294 141.051 224.102 141.051H222.671L224.363 137.379L220.619 128.82H222.302C222.464 128.82 222.587 128.859 222.671 128.937C222.761 129.009 222.827 129.096 222.869 129.198L225.056 134.409C225.11 134.559 225.158 134.709 225.2 134.859C225.248 135.003 225.293 135.153 225.335 135.309C225.383 135.153 225.431 135 225.479 134.85C225.527 134.7 225.581 134.55 225.641 134.4L227.738 129.198C227.78 129.09 227.849 129 227.945 128.928C228.047 128.856 228.158 128.82 228.278 128.82H229.826Z" fill="white"/>
<path d="M49.5888 164.536V165.8H44.0848V169.608H48.5408V170.824H44.0848V174.736H49.5888V176H42.5248V164.536H49.5888ZM57.3017 176C57.099 176 56.971 175.901 56.9177 175.704L56.7897 174.72C56.443 175.141 56.0457 175.48 55.5977 175.736C55.155 175.987 54.6457 176.112 54.0697 176.112C53.6057 176.112 53.1844 176.024 52.8057 175.848C52.427 175.667 52.1044 175.403 51.8377 175.056C51.571 174.709 51.3657 174.277 51.2217 173.76C51.0777 173.243 51.0057 172.648 51.0057 171.976C51.0057 171.379 51.0857 170.824 51.2457 170.312C51.4057 169.795 51.635 169.347 51.9337 168.968C52.2377 168.589 52.6057 168.293 53.0377 168.08C53.4697 167.861 53.9604 167.752 54.5097 167.752C55.0057 167.752 55.4297 167.837 55.7817 168.008C56.1337 168.173 56.4484 168.408 56.7257 168.712V164.216H58.1497V176H57.3017ZM54.5417 174.96C55.0057 174.96 55.411 174.853 55.7577 174.64C56.1097 174.427 56.4324 174.125 56.7257 173.736V169.816C56.4644 169.464 56.1764 169.219 55.8617 169.08C55.5524 168.936 55.2084 168.864 54.8297 168.864C54.0724 168.864 53.491 169.133 53.0857 169.672C52.6804 170.211 52.4777 170.979 52.4777 171.976C52.4777 172.504 52.523 172.957 52.6137 173.336C52.7044 173.709 52.8377 174.019 53.0137 174.264C53.1897 174.504 53.4057 174.68 53.6617 174.792C53.9177 174.904 54.211 174.96 54.5417 174.96ZM62.1192 167.896V176H60.6952V167.896H62.1192ZM62.4392 165.352C62.4392 165.491 62.4099 165.621 62.3512 165.744C62.2979 165.861 62.2232 165.968 62.1272 166.064C62.0365 166.155 61.9299 166.227 61.8072 166.28C61.6845 166.333 61.5539 166.36 61.4152 166.36C61.2765 166.36 61.1459 166.333 61.0232 166.28C60.9059 166.227 60.7992 166.155 60.7032 166.064C60.6125 165.968 60.5405 165.861 60.4872 165.744C60.4339 165.621 60.4072 165.491 60.4072 165.352C60.4072 165.213 60.4339 165.083 60.4872 164.96C60.5405 164.832 60.6125 164.723 60.7032 164.632C60.7992 164.536 60.9059 164.461 61.0232 164.408C61.1459 164.355 61.2765 164.328 61.4152 164.328C61.5539 164.328 61.6845 164.355 61.8072 164.408C61.9299 164.461 62.0365 164.536 62.1272 164.632C62.2232 164.723 62.2979 164.832 62.3512 164.96C62.4099 165.083 62.4392 165.213 62.4392 165.352ZM67.0849 176.128C66.4449 176.128 65.9516 175.949 65.6049 175.592C65.2636 175.235 65.0929 174.72 65.0929 174.048V169.088H64.1169C64.0316 169.088 63.9596 169.064 63.9009 169.016C63.8423 168.963 63.8129 168.883 63.8129 168.776V168.208L65.1409 168.04L65.4689 165.536C65.4796 165.456 65.5143 165.392 65.5729 165.344C65.6316 165.291 65.7063 165.264 65.7969 165.264H66.5169V168.056H68.8369V169.088H66.5169V173.952C66.5169 174.293 66.5996 174.547 66.7649 174.712C66.9303 174.877 67.1436 174.96 67.4049 174.96C67.5543 174.96 67.6823 174.941 67.7889 174.904C67.9009 174.861 67.9969 174.816 68.0769 174.768C68.1569 174.72 68.2236 174.677 68.2769 174.64C68.3356 174.597 68.3863 174.576 68.4289 174.576C68.5036 174.576 68.5703 174.621 68.6289 174.712L69.0449 175.392C68.7996 175.621 68.5036 175.803 68.1569 175.936C67.8103 176.064 67.4529 176.128 67.0849 176.128ZM76.9714 167.768C77.5634 167.768 78.0968 167.867 78.5714 168.064C79.0514 168.261 79.4568 168.541 79.7874 168.904C80.1234 169.267 80.3794 169.707 80.5554 170.224C80.7368 170.736 80.8274 171.309 80.8274 171.944C80.8274 172.584 80.7368 173.16 80.5554 173.672C80.3794 174.184 80.1234 174.621 79.7874 174.984C79.4568 175.347 79.0514 175.627 78.5714 175.824C78.0968 176.016 77.5634 176.112 76.9714 176.112C76.3794 176.112 75.8434 176.016 75.3634 175.824C74.8888 175.627 74.4834 175.347 74.1474 174.984C73.8114 174.621 73.5528 174.184 73.3714 173.672C73.1901 173.16 73.0994 172.584 73.0994 171.944C73.0994 171.309 73.1901 170.736 73.3714 170.224C73.5528 169.707 73.8114 169.267 74.1474 168.904C74.4834 168.541 74.8888 168.261 75.3634 168.064C75.8434 167.867 76.3794 167.768 76.9714 167.768ZM76.9714 175C77.7714 175 78.3688 174.733 78.7634 174.2C79.1581 173.661 79.3554 172.912 79.3554 171.952C79.3554 170.987 79.1581 170.235 78.7634 169.696C78.3688 169.157 77.7714 168.888 76.9714 168.888C76.5661 168.888 76.2141 168.957 75.9154 169.096C75.6168 169.235 75.3661 169.435 75.1634 169.696C74.9661 169.957 74.8168 170.28 74.7154 170.664C74.6194 171.043 74.5714 171.472 74.5714 171.952C74.5714 172.432 74.6194 172.861 74.7154 173.24C74.8168 173.619 74.9661 173.939 75.1634 174.2C75.3661 174.456 75.6168 174.653 75.9154 174.792C76.2141 174.931 76.5661 175 76.9714 175ZM82.6301 176V164.216H84.0621V169.064C84.3981 168.675 84.7821 168.363 85.2141 168.128C85.6514 167.888 86.1501 167.768 86.7101 167.768C87.1794 167.768 87.6034 167.856 87.9821 168.032C88.3607 168.208 88.6834 168.472 88.9501 168.824C89.2167 169.171 89.4221 169.603 89.5661 170.12C89.7101 170.632 89.7821 171.224 89.7821 171.896C89.7821 172.493 89.7021 173.051 89.5421 173.568C89.3821 174.08 89.1501 174.525 88.8461 174.904C88.5474 175.277 88.1794 175.573 87.7421 175.792C87.3101 176.005 86.8221 176.112 86.2781 176.112C85.7554 176.112 85.3101 176.011 84.9421 175.808C84.5794 175.605 84.2621 175.323 83.9901 174.96L83.9181 175.696C83.8754 175.899 83.7527 176 83.5501 176H82.6301ZM86.2461 168.904C85.7821 168.904 85.3741 169.011 85.0221 169.224C84.6754 169.437 84.3554 169.739 84.0621 170.128V174.048C84.3181 174.4 84.6007 174.648 84.9101 174.792C85.2247 174.936 85.5741 175.008 85.9581 175.008C86.7154 175.008 87.2967 174.739 87.7021 174.2C88.1074 173.661 88.3101 172.893 88.3101 171.896C88.3101 171.368 88.2621 170.915 88.1661 170.536C88.0754 170.157 87.9421 169.848 87.7661 169.608C87.5901 169.363 87.3741 169.184 87.1181 169.072C86.8621 168.96 86.5714 168.904 86.2461 168.904ZM93.1036 167.896V176.6C93.1036 176.925 93.0609 177.227 92.9756 177.504C92.8902 177.787 92.7542 178.032 92.5676 178.24C92.3862 178.448 92.1489 178.611 91.8556 178.728C91.5676 178.851 91.2209 178.912 90.8156 178.912C90.6396 178.912 90.4796 178.899 90.3356 178.872C90.1916 178.845 90.0476 178.805 89.9036 178.752L89.9676 177.984C89.9782 177.915 90.0022 177.869 90.0396 177.848C90.0769 177.832 90.1356 177.824 90.2156 177.824C90.2582 177.824 90.3036 177.824 90.3516 177.824C90.3996 177.829 90.4582 177.832 90.5276 177.832C90.9436 177.832 91.2396 177.733 91.4156 177.536C91.5916 177.344 91.6796 177.032 91.6796 176.6V167.896H93.1036ZM93.4236 165.352C93.4236 165.491 93.3942 165.621 93.3356 165.744C93.2822 165.861 93.2076 165.968 93.1116 166.064C93.0209 166.155 92.9142 166.227 92.7916 166.28C92.6689 166.333 92.5382 166.36 92.3996 166.36C92.2609 166.36 92.1302 166.333 92.0076 166.28C91.8902 166.227 91.7836 166.155 91.6876 166.064C91.5969 165.968 91.5249 165.861 91.4716 165.744C91.4182 165.621 91.3916 165.491 91.3916 165.352C91.3916 165.213 91.4182 165.083 91.4716 164.96C91.5249 164.832 91.5969 164.723 91.6876 164.632C91.7836 164.536 91.8902 164.461 92.0076 164.408C92.1302 164.355 92.2609 164.328 92.3996 164.328C92.5382 164.328 92.6689 164.355 92.7916 164.408C92.9142 164.461 93.0209 164.536 93.1116 164.632C93.2076 164.723 93.2822 164.832 93.3356 164.96C93.3942 165.083 93.4236 165.213 93.4236 165.352ZM98.7901 167.768C99.2754 167.768 99.7234 167.851 100.134 168.016C100.545 168.176 100.899 168.411 101.198 168.72C101.497 169.024 101.729 169.403 101.894 169.856C102.065 170.304 102.15 170.816 102.15 171.392C102.15 171.616 102.126 171.765 102.078 171.84C102.03 171.915 101.939 171.952 101.806 171.952H96.4141C96.4247 172.464 96.4941 172.909 96.6221 173.288C96.7501 173.667 96.9261 173.984 97.1501 174.24C97.3741 174.491 97.6407 174.68 97.9501 174.808C98.2594 174.931 98.6061 174.992 98.9901 174.992C99.3474 174.992 99.6541 174.952 99.9101 174.872C100.171 174.787 100.395 174.696 100.582 174.6C100.769 174.504 100.923 174.416 101.046 174.336C101.174 174.251 101.283 174.208 101.374 174.208C101.491 174.208 101.582 174.253 101.646 174.344L102.046 174.864C101.87 175.077 101.659 175.264 101.414 175.424C101.169 175.579 100.905 175.707 100.622 175.808C100.345 175.909 100.057 175.984 99.7581 176.032C99.4594 176.085 99.1634 176.112 98.8701 176.112C98.3101 176.112 97.7927 176.019 97.3181 175.832C96.8487 175.64 96.4407 175.363 96.0941 175C95.7527 174.632 95.4861 174.179 95.2941 173.64C95.1021 173.101 95.0061 172.483 95.0061 171.784C95.0061 171.219 95.0914 170.691 95.2621 170.2C95.4381 169.709 95.6887 169.285 96.0141 168.928C96.3394 168.565 96.7367 168.283 97.2061 168.08C97.6754 167.872 98.2034 167.768 98.7901 167.768ZM98.8221 168.816C98.1341 168.816 97.5927 169.016 97.1981 169.416C96.8034 169.811 96.5581 170.36 96.4621 171.064H100.87C100.87 170.733 100.825 170.432 100.734 170.16C100.643 169.883 100.51 169.645 100.334 169.448C100.158 169.245 99.9421 169.091 99.6861 168.984C99.4354 168.872 99.1474 168.816 98.8221 168.816ZM109.501 169.336C109.458 169.395 109.415 169.44 109.373 169.472C109.33 169.504 109.269 169.52 109.189 169.52C109.109 169.52 109.021 169.488 108.925 169.424C108.834 169.355 108.717 169.28 108.573 169.2C108.429 169.12 108.253 169.048 108.045 168.984C107.842 168.915 107.591 168.88 107.293 168.88C106.898 168.88 106.549 168.952 106.245 169.096C105.941 169.235 105.685 169.437 105.477 169.704C105.274 169.971 105.119 170.293 105.013 170.672C104.911 171.051 104.861 171.475 104.861 171.944C104.861 172.435 104.917 172.872 105.029 173.256C105.141 173.635 105.298 173.955 105.501 174.216C105.703 174.472 105.949 174.669 106.237 174.808C106.53 174.941 106.858 175.008 107.221 175.008C107.567 175.008 107.853 174.968 108.077 174.888C108.301 174.803 108.487 174.709 108.637 174.608C108.786 174.507 108.909 174.416 109.005 174.336C109.101 174.251 109.197 174.208 109.293 174.208C109.415 174.208 109.506 174.253 109.565 174.344L109.965 174.864C109.613 175.296 109.173 175.613 108.645 175.816C108.117 176.013 107.559 176.112 106.973 176.112C106.466 176.112 105.994 176.019 105.557 175.832C105.125 175.645 104.749 175.376 104.429 175.024C104.109 174.667 103.855 174.229 103.669 173.712C103.487 173.195 103.397 172.605 103.397 171.944C103.397 171.341 103.479 170.784 103.645 170.272C103.815 169.76 104.061 169.32 104.381 168.952C104.706 168.579 105.106 168.288 105.581 168.08C106.055 167.872 106.599 167.768 107.213 167.768C107.778 167.768 108.279 167.861 108.717 168.048C109.154 168.229 109.541 168.488 109.877 168.824L109.501 169.336ZM113.897 176.128C113.257 176.128 112.764 175.949 112.417 175.592C112.076 175.235 111.905 174.72 111.905 174.048V169.088H110.929C110.844 169.088 110.772 169.064 110.713 169.016C110.655 168.963 110.625 168.883 110.625 168.776V168.208L111.953 168.04L112.281 165.536C112.292 165.456 112.327 165.392 112.385 165.344C112.444 165.291 112.519 165.264 112.609 165.264H113.329V168.056H115.649V169.088H113.329V173.952C113.329 174.293 113.412 174.547 113.577 174.712C113.743 174.877 113.956 174.96 114.217 174.96C114.367 174.96 114.495 174.941 114.601 174.904C114.713 174.861 114.809 174.816 114.889 174.768C114.969 174.72 115.036 174.677 115.089 174.64C115.148 174.597 115.199 174.576 115.241 174.576C115.316 174.576 115.383 174.621 115.441 174.712L115.857 175.392C115.612 175.621 115.316 175.803 114.969 175.936C114.623 176.064 114.265 176.128 113.897 176.128ZM122.05 169.232C121.986 169.349 121.888 169.408 121.754 169.408C121.674 169.408 121.584 169.379 121.482 169.32C121.381 169.261 121.256 169.197 121.106 169.128C120.962 169.053 120.789 168.987 120.586 168.928C120.384 168.864 120.144 168.832 119.866 168.832C119.626 168.832 119.41 168.864 119.218 168.928C119.026 168.987 118.861 169.069 118.722 169.176C118.589 169.283 118.485 169.408 118.41 169.552C118.341 169.691 118.306 169.843 118.306 170.008C118.306 170.216 118.365 170.389 118.482 170.528C118.605 170.667 118.765 170.787 118.962 170.888C119.16 170.989 119.384 171.08 119.634 171.16C119.885 171.235 120.141 171.317 120.402 171.408C120.669 171.493 120.928 171.589 121.178 171.696C121.429 171.803 121.653 171.936 121.85 172.096C122.048 172.256 122.205 172.453 122.322 172.688C122.445 172.917 122.506 173.195 122.506 173.52C122.506 173.893 122.44 174.24 122.306 174.56C122.173 174.875 121.976 175.149 121.714 175.384C121.453 175.613 121.133 175.795 120.754 175.928C120.376 176.061 119.938 176.128 119.442 176.128C118.877 176.128 118.365 176.037 117.906 175.856C117.448 175.669 117.058 175.432 116.738 175.144L117.074 174.6C117.117 174.531 117.168 174.477 117.226 174.44C117.285 174.403 117.362 174.384 117.458 174.384C117.554 174.384 117.656 174.421 117.762 174.496C117.869 174.571 117.997 174.653 118.146 174.744C118.301 174.835 118.485 174.917 118.698 174.992C118.917 175.067 119.189 175.104 119.514 175.104C119.792 175.104 120.034 175.069 120.242 175C120.45 174.925 120.624 174.827 120.762 174.704C120.901 174.581 121.002 174.44 121.066 174.28C121.136 174.12 121.17 173.949 121.17 173.768C121.17 173.544 121.109 173.36 120.986 173.216C120.869 173.067 120.712 172.941 120.514 172.84C120.317 172.733 120.09 172.643 119.834 172.568C119.584 172.488 119.325 172.405 119.058 172.32C118.797 172.235 118.538 172.139 118.282 172.032C118.032 171.92 117.808 171.781 117.61 171.616C117.413 171.451 117.253 171.248 117.13 171.008C117.013 170.763 116.954 170.467 116.954 170.12C116.954 169.811 117.018 169.515 117.146 169.232C117.274 168.944 117.461 168.693 117.706 168.48C117.952 168.261 118.253 168.088 118.61 167.96C118.968 167.832 119.376 167.768 119.834 167.768C120.368 167.768 120.845 167.853 121.266 168.024C121.693 168.189 122.061 168.419 122.37 168.712L122.05 169.232ZM126.385 167.896H127.505C127.623 167.896 127.719 167.925 127.793 167.984C127.868 168.043 127.919 168.112 127.945 168.192L129.497 173.408C129.54 173.6 129.58 173.787 129.617 173.968C129.655 174.144 129.687 174.323 129.713 174.504C129.756 174.323 129.804 174.144 129.857 173.968C129.911 173.787 129.967 173.6 130.025 173.408L131.737 168.16C131.764 168.08 131.809 168.013 131.873 167.96C131.943 167.907 132.028 167.88 132.129 167.88H132.745C132.852 167.88 132.94 167.907 133.009 167.96C133.079 168.013 133.127 168.08 133.153 168.16L134.825 173.408C134.884 173.595 134.935 173.779 134.977 173.96C135.025 174.141 135.071 174.32 135.113 174.496C135.14 174.32 135.175 174.136 135.217 173.944C135.26 173.752 135.305 173.573 135.353 173.408L136.937 168.192C136.964 168.107 137.015 168.037 137.089 167.984C137.164 167.925 137.252 167.896 137.353 167.896H138.425L135.801 176H134.673C134.535 176 134.439 175.909 134.385 175.728L132.593 170.232C132.551 170.109 132.516 169.987 132.489 169.864C132.463 169.736 132.436 169.611 132.409 169.488C132.383 169.611 132.356 169.736 132.329 169.864C132.303 169.992 132.268 170.117 132.225 170.24L130.409 175.728C130.351 175.909 130.241 176 130.081 176H129.009L126.385 167.896ZM141.275 167.896V176H139.851V167.896H141.275ZM141.595 165.352C141.595 165.491 141.566 165.621 141.507 165.744C141.454 165.861 141.379 165.968 141.283 166.064C141.193 166.155 141.086 166.227 140.963 166.28C140.841 166.333 140.71 166.36 140.571 166.36C140.433 166.36 140.302 166.333 140.179 166.28C140.062 166.227 139.955 166.155 139.859 166.064C139.769 165.968 139.697 165.861 139.643 165.744C139.59 165.621 139.563 165.491 139.563 165.352C139.563 165.213 139.59 165.083 139.643 164.96C139.697 164.832 139.769 164.723 139.859 164.632C139.955 164.536 140.062 164.461 140.179 164.408C140.302 164.355 140.433 164.328 140.571 164.328C140.71 164.328 140.841 164.355 140.963 164.408C141.086 164.461 141.193 164.536 141.283 164.632C141.379 164.723 141.454 164.832 141.507 164.96C141.566 165.083 141.595 165.213 141.595 165.352ZM146.241 176.128C145.601 176.128 145.108 175.949 144.761 175.592C144.42 175.235 144.249 174.72 144.249 174.048V169.088H143.273C143.188 169.088 143.116 169.064 143.057 169.016C142.999 168.963 142.969 168.883 142.969 168.776V168.208L144.297 168.04L144.625 165.536C144.636 165.456 144.671 165.392 144.729 165.344C144.788 165.291 144.863 165.264 144.953 165.264H145.673V168.056H147.993V169.088H145.673V173.952C145.673 174.293 145.756 174.547 145.921 174.712C146.087 174.877 146.3 174.96 146.561 174.96C146.711 174.96 146.839 174.941 146.945 174.904C147.057 174.861 147.153 174.816 147.233 174.768C147.313 174.72 147.38 174.677 147.433 174.64C147.492 174.597 147.543 174.576 147.585 174.576C147.66 174.576 147.727 174.621 147.785 174.712L148.201 175.392C147.956 175.621 147.66 175.803 147.313 175.936C146.967 176.064 146.609 176.128 146.241 176.128ZM149.754 176V164.216H151.178V168.984C151.525 168.616 151.909 168.323 152.33 168.104C152.751 167.88 153.237 167.768 153.786 167.768C154.229 167.768 154.618 167.843 154.954 167.992C155.295 168.136 155.578 168.344 155.802 168.616C156.031 168.883 156.205 169.205 156.322 169.584C156.439 169.963 156.498 170.381 156.498 170.84V176H155.074V170.84C155.074 170.227 154.933 169.752 154.65 169.416C154.373 169.075 153.946 168.904 153.37 168.904C152.949 168.904 152.554 169.005 152.186 169.208C151.823 169.411 151.487 169.685 151.178 170.032V176H149.754ZM163.322 167.896V176.6C163.322 176.925 163.28 177.227 163.194 177.504C163.109 177.787 162.973 178.032 162.786 178.24C162.605 178.448 162.368 178.611 162.074 178.728C161.786 178.851 161.44 178.912 161.034 178.912C160.858 178.912 160.698 178.899 160.554 178.872C160.41 178.845 160.266 178.805 160.122 178.752L160.186 177.984C160.197 177.915 160.221 177.869 160.258 177.848C160.296 177.832 160.354 177.824 160.434 177.824C160.477 177.824 160.522 177.824 160.57 177.824C160.618 177.829 160.677 177.832 160.746 177.832C161.162 177.832 161.458 177.733 161.634 177.536C161.81 177.344 161.898 177.032 161.898 176.6V167.896H163.322ZM163.642 165.352C163.642 165.491 163.613 165.621 163.554 165.744C163.501 165.861 163.426 165.968 163.33 166.064C163.24 166.155 163.133 166.227 163.01 166.28C162.888 166.333 162.757 166.36 162.618 166.36C162.48 166.36 162.349 166.333 162.226 166.28C162.109 166.227 162.002 166.155 161.906 166.064C161.816 165.968 161.744 165.861 161.69 165.744C161.637 165.621 161.61 165.491 161.61 165.352C161.61 165.213 161.637 165.083 161.69 164.96C161.744 164.832 161.816 164.723 161.906 164.632C162.002 164.536 162.109 164.461 162.226 164.408C162.349 164.355 162.48 164.328 162.618 164.328C162.757 164.328 162.888 164.355 163.01 164.408C163.133 164.461 163.24 164.536 163.33 164.632C163.426 164.723 163.501 164.832 163.554 164.96C163.613 165.083 163.642 165.213 163.642 165.352ZM167.033 167.896V173.064C167.033 173.677 167.174 174.152 167.457 174.488C167.739 174.824 168.166 174.992 168.737 174.992C169.153 174.992 169.545 174.893 169.913 174.696C170.281 174.499 170.619 174.224 170.929 173.872V167.896H172.353V176H171.505C171.302 176 171.174 175.901 171.121 175.704L171.009 174.832C170.657 175.221 170.262 175.536 169.825 175.776C169.387 176.011 168.886 176.128 168.321 176.128C167.878 176.128 167.486 176.056 167.145 175.912C166.809 175.763 166.526 175.555 166.297 175.288C166.067 175.021 165.894 174.699 165.777 174.32C165.665 173.941 165.609 173.523 165.609 173.064V167.896H167.033ZM179.331 169.232C179.267 169.349 179.169 169.408 179.035 169.408C178.955 169.408 178.865 169.379 178.763 169.32C178.662 169.261 178.537 169.197 178.387 169.128C178.243 169.053 178.07 168.987 177.867 168.928C177.665 168.864 177.425 168.832 177.147 168.832C176.907 168.832 176.691 168.864 176.499 168.928C176.307 168.987 176.142 169.069 176.003 169.176C175.87 169.283 175.766 169.408 175.691 169.552C175.622 169.691 175.587 169.843 175.587 170.008C175.587 170.216 175.646 170.389 175.763 170.528C175.886 170.667 176.046 170.787 176.243 170.888C176.441 170.989 176.665 171.08 176.915 171.16C177.166 171.235 177.422 171.317 177.683 171.408C177.95 171.493 178.209 171.589 178.459 171.696C178.71 171.803 178.934 171.936 179.131 172.096C179.329 172.256 179.486 172.453 179.603 172.688C179.726 172.917 179.787 173.195 179.787 173.52C179.787 173.893 179.721 174.24 179.587 174.56C179.454 174.875 179.257 175.149 178.995 175.384C178.734 175.613 178.414 175.795 178.035 175.928C177.657 176.061 177.219 176.128 176.723 176.128C176.158 176.128 175.646 176.037 175.187 175.856C174.729 175.669 174.339 175.432 174.019 175.144L174.355 174.6C174.398 174.531 174.449 174.477 174.507 174.44C174.566 174.403 174.643 174.384 174.739 174.384C174.835 174.384 174.937 174.421 175.043 174.496C175.15 174.571 175.278 174.653 175.427 174.744C175.582 174.835 175.766 174.917 175.979 174.992C176.198 175.067 176.47 175.104 176.795 175.104C177.073 175.104 177.315 175.069 177.523 175C177.731 174.925 177.905 174.827 178.043 174.704C178.182 174.581 178.283 174.44 178.347 174.28C178.417 174.12 178.451 173.949 178.451 173.768C178.451 173.544 178.39 173.36 178.267 173.216C178.15 173.067 177.993 172.941 177.795 172.84C177.598 172.733 177.371 172.643 177.115 172.568C176.865 172.488 176.606 172.405 176.339 172.32C176.078 172.235 175.819 172.139 175.563 172.032C175.313 171.92 175.089 171.781 174.891 171.616C174.694 171.451 174.534 171.248 174.411 171.008C174.294 170.763 174.235 170.467 174.235 170.12C174.235 169.811 174.299 169.515 174.427 169.232C174.555 168.944 174.742 168.693 174.987 168.48C175.233 168.261 175.534 168.088 175.891 167.96C176.249 167.832 176.657 167.768 177.115 167.768C177.649 167.768 178.126 167.853 178.547 168.024C178.974 168.189 179.342 168.419 179.651 168.712L179.331 169.232ZM184.085 176.128C183.445 176.128 182.952 175.949 182.605 175.592C182.264 175.235 182.093 174.72 182.093 174.048V169.088H181.117C181.032 169.088 180.96 169.064 180.901 169.016C180.842 168.963 180.813 168.883 180.813 168.776V168.208L182.141 168.04L182.469 165.536C182.48 165.456 182.514 165.392 182.573 165.344C182.632 165.291 182.706 165.264 182.797 165.264H183.517V168.056H185.837V169.088H183.517V173.952C183.517 174.293 183.6 174.547 183.765 174.712C183.93 174.877 184.144 174.96 184.405 174.96C184.554 174.96 184.682 174.941 184.789 174.904C184.901 174.861 184.997 174.816 185.077 174.768C185.157 174.72 185.224 174.677 185.277 174.64C185.336 174.597 185.386 174.576 185.429 174.576C185.504 174.576 185.57 174.621 185.629 174.712L186.045 175.392C185.8 175.621 185.504 175.803 185.157 175.936C184.81 176.064 184.453 176.128 184.085 176.128ZM193.147 176.128C192.507 176.128 192.014 175.949 191.667 175.592C191.326 175.235 191.155 174.72 191.155 174.048V169.088H190.179C190.094 169.088 190.022 169.064 189.963 169.016C189.905 168.963 189.875 168.883 189.875 168.776V168.208L191.203 168.04L191.531 165.536C191.542 165.456 191.577 165.392 191.635 165.344C191.694 165.291 191.769 165.264 191.859 165.264H192.579V168.056H194.899V169.088H192.579V173.952C192.579 174.293 192.662 174.547 192.827 174.712C192.993 174.877 193.206 174.96 193.467 174.96C193.617 174.96 193.745 174.941 193.851 174.904C193.963 174.861 194.059 174.816 194.139 174.768C194.219 174.72 194.286 174.677 194.339 174.64C194.398 174.597 194.449 174.576 194.491 174.576C194.566 174.576 194.633 174.621 194.691 174.712L195.107 175.392C194.862 175.621 194.566 175.803 194.219 175.936C193.873 176.064 193.515 176.128 193.147 176.128ZM199.868 167.768C200.354 167.768 200.802 167.851 201.212 168.016C201.623 168.176 201.978 168.411 202.276 168.72C202.575 169.024 202.807 169.403 202.972 169.856C203.143 170.304 203.228 170.816 203.228 171.392C203.228 171.616 203.204 171.765 203.156 171.84C203.108 171.915 203.018 171.952 202.884 171.952H197.492C197.503 172.464 197.572 172.909 197.7 173.288C197.828 173.667 198.004 173.984 198.228 174.24C198.452 174.491 198.719 174.68 199.028 174.808C199.338 174.931 199.684 174.992 200.068 174.992C200.426 174.992 200.732 174.952 200.988 174.872C201.25 174.787 201.474 174.696 201.66 174.6C201.847 174.504 202.002 174.416 202.124 174.336C202.252 174.251 202.362 174.208 202.452 174.208C202.57 174.208 202.66 174.253 202.724 174.344L203.124 174.864C202.948 175.077 202.738 175.264 202.492 175.424C202.247 175.579 201.983 175.707 201.7 175.808C201.423 175.909 201.135 175.984 200.836 176.032C200.538 176.085 200.242 176.112 199.948 176.112C199.388 176.112 198.871 176.019 198.396 175.832C197.927 175.64 197.519 175.363 197.172 175C196.831 174.632 196.564 174.179 196.372 173.64C196.18 173.101 196.084 172.483 196.084 171.784C196.084 171.219 196.17 170.691 196.34 170.2C196.516 169.709 196.767 169.285 197.092 168.928C197.418 168.565 197.815 168.283 198.284 168.08C198.754 167.872 199.282 167.768 199.868 167.768ZM199.9 168.816C199.212 168.816 198.671 169.016 198.276 169.416C197.882 169.811 197.636 170.36 197.54 171.064H201.948C201.948 170.733 201.903 170.432 201.812 170.16C201.722 169.883 201.588 169.645 201.412 169.448C201.236 169.245 201.02 169.091 200.764 168.984C200.514 168.872 200.226 168.816 199.9 168.816ZM206.462 171.848L203.734 167.896H205.102C205.22 167.896 205.305 167.915 205.358 167.952C205.412 167.989 205.46 168.043 205.502 168.112L207.486 171.152C207.534 171.003 207.604 170.853 207.694 170.704L209.438 168.144C209.492 168.069 209.545 168.011 209.598 167.968C209.652 167.92 209.718 167.896 209.798 167.896H211.11L208.382 171.768L211.222 176H209.854C209.737 176 209.644 175.971 209.574 175.912C209.51 175.848 209.457 175.779 209.414 175.704L207.374 172.528C207.337 172.683 207.281 172.821 207.206 172.944L205.318 175.704C205.265 175.779 205.206 175.848 205.142 175.912C205.084 175.971 205.001 176 204.894 176H203.622L206.462 171.848ZM215.085 176.128C214.445 176.128 213.952 175.949 213.605 175.592C213.264 175.235 213.093 174.72 213.093 174.048V169.088H212.117C212.032 169.088 211.96 169.064 211.901 169.016C211.842 168.963 211.813 168.883 211.813 168.776V168.208L213.141 168.04L213.469 165.536C213.48 165.456 213.514 165.392 213.573 165.344C213.632 165.291 213.706 165.264 213.797 165.264H214.517V168.056H216.837V169.088H214.517V173.952C214.517 174.293 214.6 174.547 214.765 174.712C214.93 174.877 215.144 174.96 215.405 174.96C215.554 174.96 215.682 174.941 215.789 174.904C215.901 174.861 215.997 174.816 216.077 174.768C216.157 174.72 216.224 174.677 216.277 174.64C216.336 174.597 216.386 174.576 216.429 174.576C216.504 174.576 216.57 174.621 216.629 174.712L217.045 175.392C216.8 175.621 216.504 175.803 216.157 175.936C215.81 176.064 215.453 176.128 215.085 176.128ZM224.971 167.768C225.563 167.768 226.097 167.867 226.571 168.064C227.051 168.261 227.457 168.541 227.787 168.904C228.123 169.267 228.379 169.707 228.555 170.224C228.737 170.736 228.827 171.309 228.827 171.944C228.827 172.584 228.737 173.16 228.555 173.672C228.379 174.184 228.123 174.621 227.787 174.984C227.457 175.347 227.051 175.627 226.571 175.824C226.097 176.016 225.563 176.112 224.971 176.112C224.379 176.112 223.843 176.016 223.363 175.824C222.889 175.627 222.483 175.347 222.147 174.984C221.811 174.621 221.553 174.184 221.371 173.672C221.19 173.16 221.099 172.584 221.099 171.944C221.099 171.309 221.19 170.736 221.371 170.224C221.553 169.707 221.811 169.267 222.147 168.904C222.483 168.541 222.889 168.261 223.363 168.064C223.843 167.867 224.379 167.768 224.971 167.768ZM224.971 175C225.771 175 226.369 174.733 226.763 174.2C227.158 173.661 227.355 172.912 227.355 171.952C227.355 170.987 227.158 170.235 226.763 169.696C226.369 169.157 225.771 168.888 224.971 168.888C224.566 168.888 224.214 168.957 223.915 169.096C223.617 169.235 223.366 169.435 223.163 169.696C222.966 169.957 222.817 170.28 222.715 170.664C222.619 171.043 222.571 171.472 222.571 171.952C222.571 172.432 222.619 172.861 222.715 173.24C222.817 173.619 222.966 173.939 223.163 174.2C223.366 174.456 223.617 174.653 223.915 174.792C224.214 174.931 224.566 175 224.971 175ZM230.582 176V167.896H231.398C231.553 167.896 231.659 167.925 231.718 167.984C231.777 168.043 231.817 168.144 231.838 168.288L231.934 169.552C232.211 168.987 232.553 168.547 232.958 168.232C233.369 167.912 233.849 167.752 234.398 167.752C234.622 167.752 234.825 167.779 235.006 167.832C235.187 167.88 235.355 167.949 235.51 168.04L235.326 169.104C235.289 169.237 235.206 169.304 235.078 169.304C235.003 169.304 234.889 169.28 234.734 169.232C234.579 169.179 234.363 169.152 234.086 169.152C233.59 169.152 233.174 169.296 232.838 169.584C232.507 169.872 232.23 170.291 232.006 170.84V176H230.582ZM77.8946 200V191.896H78.7106C78.8652 191.896 78.9719 191.925 79.0306 191.984C79.0892 192.043 79.1292 192.144 79.1506 192.288L79.2466 193.552C79.5239 192.987 79.8652 192.547 80.2706 192.232C80.6812 191.912 81.1612 191.752 81.7106 191.752C81.9346 191.752 82.1372 191.779 82.3186 191.832C82.4999 191.88 82.6679 191.949 82.8226 192.04L82.6386 193.104C82.6012 193.237 82.5186 193.304 82.3906 193.304C82.3159 193.304 82.2012 193.28 82.0466 193.232C81.8919 193.179 81.6759 193.152 81.3986 193.152C80.9026 193.152 80.4866 193.296 80.1506 193.584C79.8199 193.872 79.5426 194.291 79.3186 194.84V200H77.8946ZM87.5557 191.768C88.041 191.768 88.489 191.851 88.8997 192.016C89.3104 192.176 89.665 192.411 89.9637 192.72C90.2624 193.024 90.4944 193.403 90.6597 193.856C90.8304 194.304 90.9157 194.816 90.9157 195.392C90.9157 195.616 90.8917 195.765 90.8437 195.84C90.7957 195.915 90.705 195.952 90.5717 195.952H85.1797C85.1904 196.464 85.2597 196.909 85.3877 197.288C85.5157 197.667 85.6917 197.984 85.9157 198.24C86.1397 198.491 86.4064 198.68 86.7157 198.808C87.025 198.931 87.3717 198.992 87.7557 198.992C88.113 198.992 88.4197 198.952 88.6757 198.872C88.937 198.787 89.161 198.696 89.3477 198.6C89.5344 198.504 89.689 198.416 89.8117 198.336C89.9397 198.251 90.049 198.208 90.1397 198.208C90.257 198.208 90.3477 198.253 90.4117 198.344L90.8117 198.864C90.6357 199.077 90.425 199.264 90.1797 199.424C89.9344 199.579 89.6704 199.707 89.3877 199.808C89.1104 199.909 88.8224 199.984 88.5237 200.032C88.225 200.085 87.929 200.112 87.6357 200.112C87.0757 200.112 86.5584 200.019 86.0837 199.832C85.6144 199.64 85.2064 199.363 84.8597 199C84.5184 198.632 84.2517 198.179 84.0597 197.64C83.8677 197.101 83.7717 196.483 83.7717 195.784C83.7717 195.219 83.857 194.691 84.0277 194.2C84.2037 193.709 84.4544 193.285 84.7797 192.928C85.105 192.565 85.5024 192.283 85.9717 192.08C86.441 191.872 86.969 191.768 87.5557 191.768ZM87.5877 192.816C86.8997 192.816 86.3584 193.016 85.9637 193.416C85.569 193.811 85.3237 194.36 85.2277 195.064H89.6357C89.6357 194.733 89.5904 194.432 89.4997 194.16C89.409 193.883 89.2757 193.645 89.0997 193.448C88.9237 193.245 88.7077 193.091 88.4517 192.984C88.201 192.872 87.913 192.816 87.5877 192.816ZM93.0583 200V193.112L92.1623 193.008C92.0503 192.981 91.957 192.941 91.8823 192.888C91.813 192.829 91.7783 192.747 91.7783 192.64V192.056H93.0583V191.272C93.0583 190.808 93.1223 190.397 93.2503 190.04C93.3836 189.677 93.5703 189.373 93.8103 189.128C94.0556 188.877 94.349 188.688 94.6903 188.56C95.0316 188.432 95.4156 188.368 95.8423 188.368C96.205 188.368 96.541 188.421 96.8503 188.528L96.8183 189.24C96.813 189.347 96.7676 189.411 96.6823 189.432C96.597 189.453 96.477 189.464 96.3223 189.464H96.0743C95.829 189.464 95.605 189.496 95.4023 189.56C95.205 189.624 95.0343 189.728 94.8903 189.872C94.7463 190.016 94.6343 190.205 94.5543 190.44C94.4796 190.675 94.4423 190.965 94.4423 191.312V192.056H96.7863V193.088H94.4903V200H93.0583ZM101.337 191.768C101.822 191.768 102.27 191.851 102.681 192.016C103.092 192.176 103.446 192.411 103.745 192.72C104.044 193.024 104.276 193.403 104.441 193.856C104.612 194.304 104.697 194.816 104.697 195.392C104.697 195.616 104.673 195.765 104.625 195.84C104.577 195.915 104.486 195.952 104.353 195.952H98.9609C98.9716 196.464 99.0409 196.909 99.1689 197.288C99.2969 197.667 99.4729 197.984 99.6969 198.24C99.9209 198.491 100.188 198.68 100.497 198.808C100.806 198.931 101.153 198.992 101.537 198.992C101.894 198.992 102.201 198.952 102.457 198.872C102.718 198.787 102.942 198.696 103.129 198.6C103.316 198.504 103.47 198.416 103.593 198.336C103.721 198.251 103.83 198.208 103.921 198.208C104.038 198.208 104.129 198.253 104.193 198.344L104.593 198.864C104.417 199.077 104.206 199.264 103.961 199.424C103.716 199.579 103.452 199.707 103.169 199.808C102.892 199.909 102.604 199.984 102.305 200.032C102.006 200.085 101.71 200.112 101.417 200.112C100.857 200.112 100.34 200.019 99.8649 199.832C99.3956 199.64 98.9876 199.363 98.6409 199C98.2996 198.632 98.0329 198.179 97.8409 197.64C97.6489 197.101 97.5529 196.483 97.5529 195.784C97.5529 195.219 97.6383 194.691 97.8089 194.2C97.9849 193.709 98.2356 193.285 98.5609 192.928C98.8863 192.565 99.2836 192.283 99.7529 192.08C100.222 191.872 100.75 191.768 101.337 191.768ZM101.369 192.816C100.681 192.816 100.14 193.016 99.7449 193.416C99.3503 193.811 99.1049 194.36 99.0089 195.064H103.417C103.417 194.733 103.372 194.432 103.281 194.16C103.19 193.883 103.057 193.645 102.881 193.448C102.705 193.245 102.489 193.091 102.233 192.984C101.982 192.872 101.694 192.816 101.369 192.816ZM106.52 200V191.896H107.336C107.49 191.896 107.597 191.925 107.656 191.984C107.714 192.043 107.754 192.144 107.776 192.288L107.872 193.552C108.149 192.987 108.49 192.547 108.896 192.232C109.306 191.912 109.786 191.752 110.336 191.752C110.56 191.752 110.762 191.779 110.944 191.832C111.125 191.88 111.293 191.949 111.448 192.04L111.264 193.104C111.226 193.237 111.144 193.304 111.016 193.304C110.941 193.304 110.826 193.28 110.672 193.232C110.517 193.179 110.301 193.152 110.024 193.152C109.528 193.152 109.112 193.296 108.776 193.584C108.445 193.872 108.168 194.291 107.944 194.84V200H106.52ZM116.181 191.768C116.666 191.768 117.114 191.851 117.525 192.016C117.935 192.176 118.29 192.411 118.589 192.72C118.887 193.024 119.119 193.403 119.285 193.856C119.455 194.304 119.541 194.816 119.541 195.392C119.541 195.616 119.517 195.765 119.469 195.84C119.421 195.915 119.33 195.952 119.197 195.952H113.805C113.815 196.464 113.885 196.909 114.013 197.288C114.141 197.667 114.317 197.984 114.541 198.24C114.765 198.491 115.031 198.68 115.341 198.808C115.65 198.931 115.997 198.992 116.381 198.992C116.738 198.992 117.045 198.952 117.301 198.872C117.562 198.787 117.786 198.696 117.973 198.6C118.159 198.504 118.314 198.416 118.437 198.336C118.565 198.251 118.674 198.208 118.765 198.208C118.882 198.208 118.973 198.253 119.037 198.344L119.437 198.864C119.261 199.077 119.05 199.264 118.805 199.424C118.559 199.579 118.295 199.707 118.013 199.808C117.735 199.909 117.447 199.984 117.149 200.032C116.85 200.085 116.554 200.112 116.261 200.112C115.701 200.112 115.183 200.019 114.709 199.832C114.239 199.64 113.831 199.363 113.485 199C113.143 198.632 112.877 198.179 112.685 197.64C112.493 197.101 112.397 196.483 112.397 195.784C112.397 195.219 112.482 194.691 112.653 194.2C112.829 193.709 113.079 193.285 113.405 192.928C113.73 192.565 114.127 192.283 114.597 192.08C115.066 191.872 115.594 191.768 116.181 191.768ZM116.213 192.816C115.525 192.816 114.983 193.016 114.589 193.416C114.194 193.811 113.949 194.36 113.853 195.064H118.261C118.261 194.733 118.215 194.432 118.125 194.16C118.034 193.883 117.901 193.645 117.725 193.448C117.549 193.245 117.333 193.091 117.077 192.984C116.826 192.872 116.538 192.816 116.213 192.816ZM121.363 200V191.896H122.211C122.414 191.896 122.542 191.995 122.595 192.192L122.707 193.072C123.059 192.683 123.451 192.368 123.883 192.128C124.321 191.888 124.825 191.768 125.395 191.768C125.838 191.768 126.227 191.843 126.563 191.992C126.905 192.136 127.187 192.344 127.411 192.616C127.641 192.883 127.814 193.205 127.931 193.584C128.049 193.963 128.107 194.381 128.107 194.84V200H126.683V194.84C126.683 194.227 126.542 193.752 126.259 193.416C125.982 193.075 125.555 192.904 124.979 192.904C124.558 192.904 124.163 193.005 123.795 193.208C123.433 193.411 123.097 193.685 122.787 194.032V200H121.363ZM135.782 193.336C135.739 193.395 135.697 193.44 135.654 193.472C135.611 193.504 135.55 193.52 135.47 193.52C135.39 193.52 135.302 193.488 135.206 193.424C135.115 193.355 134.998 193.28 134.854 193.2C134.71 193.12 134.534 193.048 134.326 192.984C134.123 192.915 133.873 192.88 133.574 192.88C133.179 192.88 132.83 192.952 132.526 193.096C132.222 193.235 131.966 193.437 131.758 193.704C131.555 193.971 131.401 194.293 131.294 194.672C131.193 195.051 131.142 195.475 131.142 195.944C131.142 196.435 131.198 196.872 131.31 197.256C131.422 197.635 131.579 197.955 131.782 198.216C131.985 198.472 132.23 198.669 132.518 198.808C132.811 198.941 133.139 199.008 133.502 199.008C133.849 199.008 134.134 198.968 134.358 198.888C134.582 198.803 134.769 198.709 134.918 198.608C135.067 198.507 135.19 198.416 135.286 198.336C135.382 198.251 135.478 198.208 135.574 198.208C135.697 198.208 135.787 198.253 135.846 198.344L136.246 198.864C135.894 199.296 135.454 199.613 134.926 199.816C134.398 200.013 133.841 200.112 133.254 200.112C132.747 200.112 132.275 200.019 131.838 199.832C131.406 199.645 131.03 199.376 130.71 199.024C130.39 198.667 130.137 198.229 129.95 197.712C129.769 197.195 129.678 196.605 129.678 195.944C129.678 195.341 129.761 194.784 129.926 194.272C130.097 193.76 130.342 193.32 130.662 192.952C130.987 192.579 131.387 192.288 131.862 192.08C132.337 191.872 132.881 191.768 133.494 191.768C134.059 191.768 134.561 191.861 134.998 192.048C135.435 192.229 135.822 192.488 136.158 192.824L135.782 193.336ZM140.931 191.768C141.416 191.768 141.864 191.851 142.275 192.016C142.685 192.176 143.04 192.411 143.339 192.72C143.637 193.024 143.869 193.403 144.035 193.856C144.205 194.304 144.291 194.816 144.291 195.392C144.291 195.616 144.267 195.765 144.219 195.84C144.171 195.915 144.08 195.952 143.947 195.952H138.555C138.565 196.464 138.635 196.909 138.763 197.288C138.891 197.667 139.067 197.984 139.291 198.24C139.515 198.491 139.781 198.68 140.091 198.808C140.4 198.931 140.747 198.992 141.131 198.992C141.488 198.992 141.795 198.952 142.051 198.872C142.312 198.787 142.536 198.696 142.723 198.6C142.909 198.504 143.064 198.416 143.187 198.336C143.315 198.251 143.424 198.208 143.515 198.208C143.632 198.208 143.723 198.253 143.787 198.344L144.187 198.864C144.011 199.077 143.8 199.264 143.555 199.424C143.309 199.579 143.045 199.707 142.763 199.808C142.485 199.909 142.197 199.984 141.899 200.032C141.6 200.085 141.304 200.112 141.011 200.112C140.451 200.112 139.933 200.019 139.459 199.832C138.989 199.64 138.581 199.363 138.235 199C137.893 198.632 137.627 198.179 137.435 197.64C137.243 197.101 137.147 196.483 137.147 195.784C137.147 195.219 137.232 194.691 137.403 194.2C137.579 193.709 137.829 193.285 138.155 192.928C138.48 192.565 138.877 192.283 139.347 192.08C139.816 191.872 140.344 191.768 140.931 191.768ZM140.963 192.816C140.275 192.816 139.733 193.016 139.339 193.416C138.944 193.811 138.699 194.36 138.603 195.064H143.011C143.011 194.733 142.965 194.432 142.875 194.16C142.784 193.883 142.651 193.645 142.475 193.448C142.299 193.245 142.083 193.091 141.827 192.984C141.576 192.872 141.288 192.816 140.963 192.816ZM150.791 191.896V200H149.367V191.896H150.791ZM151.111 189.352C151.111 189.491 151.082 189.621 151.023 189.744C150.97 189.861 150.895 189.968 150.799 190.064C150.708 190.155 150.602 190.227 150.479 190.28C150.356 190.333 150.226 190.36 150.087 190.36C149.948 190.36 149.818 190.333 149.695 190.28C149.578 190.227 149.471 190.155 149.375 190.064C149.284 189.968 149.212 189.861 149.159 189.744C149.106 189.621 149.079 189.491 149.079 189.352C149.079 189.213 149.106 189.083 149.159 188.96C149.212 188.832 149.284 188.723 149.375 188.632C149.471 188.536 149.578 188.461 149.695 188.408C149.818 188.355 149.948 188.328 150.087 188.328C150.226 188.328 150.356 188.355 150.479 188.408C150.602 188.461 150.708 188.536 150.799 188.632C150.895 188.723 150.97 188.832 151.023 188.96C151.082 189.083 151.111 189.213 151.111 189.352ZM153.301 200V191.896H154.149C154.351 191.896 154.479 191.995 154.533 192.192L154.637 193.024C154.935 192.656 155.269 192.355 155.637 192.12C156.01 191.885 156.442 191.768 156.933 191.768C157.482 191.768 157.925 191.92 158.261 192.224C158.602 192.528 158.847 192.939 158.997 193.456C159.109 193.163 159.255 192.909 159.437 192.696C159.623 192.483 159.831 192.307 160.061 192.168C160.29 192.029 160.533 191.928 160.789 191.864C161.05 191.8 161.314 191.768 161.581 191.768C162.007 191.768 162.386 191.837 162.717 191.976C163.053 192.109 163.335 192.307 163.565 192.568C163.799 192.829 163.978 193.152 164.101 193.536C164.223 193.915 164.285 194.349 164.285 194.84V200H162.861V194.84C162.861 194.205 162.722 193.725 162.445 193.4C162.167 193.069 161.765 192.904 161.237 192.904C161.002 192.904 160.778 192.947 160.565 193.032C160.357 193.112 160.173 193.232 160.013 193.392C159.853 193.552 159.725 193.755 159.629 194C159.538 194.24 159.493 194.52 159.493 194.84V200H158.069V194.84C158.069 194.189 157.938 193.704 157.677 193.384C157.415 193.064 157.034 192.904 156.533 192.904C156.181 192.904 155.853 193 155.549 193.192C155.25 193.379 154.975 193.635 154.725 193.96V200H153.301ZM172.393 200H171.761C171.623 200 171.511 199.979 171.425 199.936C171.34 199.893 171.284 199.803 171.257 199.664L171.097 198.912C170.884 199.104 170.676 199.277 170.473 199.432C170.271 199.581 170.057 199.709 169.833 199.816C169.609 199.917 169.369 199.995 169.113 200.048C168.863 200.101 168.583 200.128 168.273 200.128C167.959 200.128 167.663 200.085 167.385 200C167.113 199.909 166.876 199.776 166.673 199.6C166.471 199.424 166.308 199.203 166.185 198.936C166.068 198.664 166.009 198.344 166.009 197.976C166.009 197.656 166.097 197.349 166.273 197.056C166.449 196.757 166.732 196.493 167.121 196.264C167.516 196.035 168.031 195.848 168.665 195.704C169.3 195.555 170.076 195.469 170.993 195.448V194.816C170.993 194.187 170.857 193.712 170.585 193.392C170.319 193.067 169.921 192.904 169.393 192.904C169.047 192.904 168.753 192.949 168.513 193.04C168.279 193.125 168.073 193.224 167.897 193.336C167.727 193.443 167.577 193.541 167.449 193.632C167.327 193.717 167.204 193.76 167.081 193.76C166.985 193.76 166.9 193.736 166.825 193.688C166.756 193.635 166.7 193.571 166.657 193.496L166.401 193.04C166.849 192.608 167.332 192.285 167.849 192.072C168.367 191.859 168.94 191.752 169.569 191.752C170.023 191.752 170.425 191.827 170.777 191.976C171.129 192.125 171.425 192.333 171.665 192.6C171.905 192.867 172.087 193.189 172.209 193.568C172.332 193.947 172.393 194.363 172.393 194.816V200ZM168.697 199.128C168.948 199.128 169.177 199.104 169.385 199.056C169.593 199.003 169.788 198.931 169.969 198.84C170.156 198.744 170.332 198.629 170.497 198.496C170.668 198.363 170.833 198.211 170.993 198.04V196.352C170.337 196.373 169.78 196.427 169.321 196.512C168.863 196.592 168.489 196.699 168.201 196.832C167.913 196.965 167.703 197.123 167.569 197.304C167.441 197.485 167.377 197.688 167.377 197.912C167.377 198.125 167.412 198.309 167.481 198.464C167.551 198.619 167.644 198.747 167.761 198.848C167.879 198.944 168.017 199.016 168.177 199.064C168.337 199.107 168.511 199.128 168.697 199.128ZM177.279 191.76C177.631 191.76 177.959 191.8 178.263 191.88C178.572 191.955 178.852 192.067 179.103 192.216H181.303V192.744C181.303 192.92 181.191 193.032 180.967 193.08L180.047 193.208C180.228 193.555 180.319 193.941 180.319 194.368C180.319 194.763 180.241 195.123 180.087 195.448C179.937 195.768 179.727 196.043 179.455 196.272C179.188 196.501 178.868 196.677 178.495 196.8C178.127 196.923 177.721 196.984 177.279 196.984C176.9 196.984 176.543 196.939 176.207 196.848C176.036 196.955 175.905 197.069 175.815 197.192C175.729 197.315 175.687 197.435 175.687 197.552C175.687 197.744 175.764 197.891 175.919 197.992C176.073 198.088 176.279 198.157 176.535 198.2C176.791 198.243 177.081 198.269 177.407 198.28C177.732 198.291 178.063 198.309 178.399 198.336C178.74 198.357 179.073 198.397 179.399 198.456C179.724 198.515 180.015 198.611 180.271 198.744C180.527 198.877 180.732 199.061 180.887 199.296C181.041 199.531 181.119 199.835 181.119 200.208C181.119 200.555 181.031 200.891 180.855 201.216C180.684 201.541 180.436 201.829 180.111 202.08C179.785 202.336 179.388 202.539 178.919 202.688C178.449 202.843 177.919 202.92 177.327 202.92C176.735 202.92 176.215 202.861 175.767 202.744C175.324 202.627 174.956 202.469 174.663 202.272C174.369 202.075 174.148 201.845 173.999 201.584C173.855 201.328 173.783 201.059 173.783 200.776C173.783 200.376 173.908 200.037 174.159 199.76C174.415 199.477 174.764 199.253 175.207 199.088C174.977 198.981 174.793 198.84 174.655 198.664C174.521 198.483 174.455 198.243 174.455 197.944C174.455 197.827 174.476 197.707 174.519 197.584C174.561 197.456 174.625 197.331 174.711 197.208C174.801 197.085 174.911 196.968 175.039 196.856C175.167 196.744 175.316 196.645 175.487 196.56C175.087 196.336 174.772 196.04 174.543 195.672C174.319 195.299 174.207 194.864 174.207 194.368C174.207 193.973 174.281 193.616 174.431 193.296C174.585 192.971 174.799 192.696 175.071 192.472C175.343 192.243 175.665 192.067 176.039 191.944C176.417 191.821 176.831 191.76 177.279 191.76ZM179.807 200.44C179.807 200.237 179.751 200.075 179.639 199.952C179.527 199.829 179.375 199.736 179.183 199.672C178.991 199.603 178.769 199.552 178.519 199.52C178.268 199.488 178.004 199.467 177.727 199.456C177.449 199.44 177.167 199.424 176.879 199.408C176.591 199.392 176.316 199.363 176.055 199.32C175.751 199.464 175.503 199.64 175.311 199.848C175.124 200.056 175.031 200.304 175.031 200.592C175.031 200.773 175.076 200.941 175.167 201.096C175.263 201.256 175.407 201.392 175.599 201.504C175.791 201.621 176.031 201.712 176.319 201.776C176.612 201.845 176.956 201.88 177.351 201.88C177.735 201.88 178.079 201.845 178.383 201.776C178.687 201.707 178.943 201.608 179.151 201.48C179.364 201.352 179.527 201.2 179.639 201.024C179.751 200.848 179.807 200.653 179.807 200.44ZM177.279 196.04C177.567 196.04 177.82 196 178.039 195.92C178.263 195.84 178.449 195.728 178.599 195.584C178.748 195.44 178.86 195.269 178.935 195.072C179.009 194.869 179.047 194.648 179.047 194.408C179.047 193.912 178.895 193.517 178.591 193.224C178.292 192.931 177.855 192.784 177.279 192.784C176.708 192.784 176.271 192.931 175.967 193.224C175.668 193.517 175.519 193.912 175.519 194.408C175.519 194.648 175.556 194.869 175.631 195.072C175.711 195.269 175.825 195.44 175.975 195.584C176.124 195.728 176.308 195.84 176.527 195.92C176.745 196 176.996 196.04 177.279 196.04ZM185.931 191.768C186.416 191.768 186.864 191.851 187.275 192.016C187.685 192.176 188.04 192.411 188.339 192.72C188.637 193.024 188.869 193.403 189.035 193.856C189.205 194.304 189.291 194.816 189.291 195.392C189.291 195.616 189.267 195.765 189.219 195.84C189.171 195.915 189.08 195.952 188.947 195.952H183.555C183.565 196.464 183.635 196.909 183.763 197.288C183.891 197.667 184.067 197.984 184.291 198.24C184.515 198.491 184.781 198.68 185.091 198.808C185.4 198.931 185.747 198.992 186.131 198.992C186.488 198.992 186.795 198.952 187.051 198.872C187.312 198.787 187.536 198.696 187.723 198.6C187.909 198.504 188.064 198.416 188.187 198.336C188.315 198.251 188.424 198.208 188.515 198.208C188.632 198.208 188.723 198.253 188.787 198.344L189.187 198.864C189.011 199.077 188.8 199.264 188.555 199.424C188.309 199.579 188.045 199.707 187.763 199.808C187.485 199.909 187.197 199.984 186.899 200.032C186.6 200.085 186.304 200.112 186.011 200.112C185.451 200.112 184.933 200.019 184.459 199.832C183.989 199.64 183.581 199.363 183.235 199C182.893 198.632 182.627 198.179 182.435 197.64C182.243 197.101 182.147 196.483 182.147 195.784C182.147 195.219 182.232 194.691 182.403 194.2C182.579 193.709 182.829 193.285 183.155 192.928C183.48 192.565 183.877 192.283 184.347 192.08C184.816 191.872 185.344 191.768 185.931 191.768ZM185.963 192.816C185.275 192.816 184.733 193.016 184.339 193.416C183.944 193.811 183.699 194.36 183.603 195.064H188.011C188.011 194.733 187.965 194.432 187.875 194.16C187.784 193.883 187.651 193.645 187.475 193.448C187.299 193.245 187.083 193.091 186.827 192.984C186.576 192.872 186.288 192.816 185.963 192.816ZM195.753 193.232C195.689 193.349 195.591 193.408 195.457 193.408C195.377 193.408 195.287 193.379 195.185 193.32C195.084 193.261 194.959 193.197 194.809 193.128C194.665 193.053 194.492 192.987 194.289 192.928C194.087 192.864 193.847 192.832 193.569 192.832C193.329 192.832 193.113 192.864 192.921 192.928C192.729 192.987 192.564 193.069 192.425 193.176C192.292 193.283 192.188 193.408 192.113 193.552C192.044 193.691 192.009 193.843 192.009 194.008C192.009 194.216 192.068 194.389 192.185 194.528C192.308 194.667 192.468 194.787 192.665 194.888C192.863 194.989 193.087 195.08 193.337 195.16C193.588 195.235 193.844 195.317 194.105 195.408C194.372 195.493 194.631 195.589 194.881 195.696C195.132 195.803 195.356 195.936 195.553 196.096C195.751 196.256 195.908 196.453 196.025 196.688C196.148 196.917 196.209 197.195 196.209 197.52C196.209 197.893 196.143 198.24 196.009 198.56C195.876 198.875 195.679 199.149 195.417 199.384C195.156 199.613 194.836 199.795 194.457 199.928C194.079 200.061 193.641 200.128 193.145 200.128C192.58 200.128 192.068 200.037 191.609 199.856C191.151 199.669 190.761 199.432 190.441 199.144L190.777 198.6C190.82 198.531 190.871 198.477 190.929 198.44C190.988 198.403 191.065 198.384 191.161 198.384C191.257 198.384 191.359 198.421 191.465 198.496C191.572 198.571 191.7 198.653 191.849 198.744C192.004 198.835 192.188 198.917 192.401 198.992C192.62 199.067 192.892 199.104 193.217 199.104C193.495 199.104 193.737 199.069 193.945 199C194.153 198.925 194.327 198.827 194.465 198.704C194.604 198.581 194.705 198.44 194.769 198.28C194.839 198.12 194.873 197.949 194.873 197.768C194.873 197.544 194.812 197.36 194.689 197.216C194.572 197.067 194.415 196.941 194.217 196.84C194.02 196.733 193.793 196.643 193.537 196.568C193.287 196.488 193.028 196.405 192.761 196.32C192.5 196.235 192.241 196.139 191.985 196.032C191.735 195.92 191.511 195.781 191.313 195.616C191.116 195.451 190.956 195.248 190.833 195.008C190.716 194.763 190.657 194.467 190.657 194.12C190.657 193.811 190.721 193.515 190.849 193.232C190.977 192.944 191.164 192.693 191.409 192.48C191.655 192.261 191.956 192.088 192.313 191.96C192.671 191.832 193.079 191.768 193.537 191.768C194.071 191.768 194.548 191.853 194.969 192.024C195.396 192.189 195.764 192.419 196.073 192.712L195.753 193.232ZM197.587 199.12C197.587 198.981 197.611 198.851 197.659 198.728C197.712 198.605 197.781 198.499 197.867 198.408C197.957 198.317 198.064 198.245 198.187 198.192C198.309 198.139 198.44 198.112 198.579 198.112C198.717 198.112 198.848 198.139 198.971 198.192C199.093 198.245 199.2 198.317 199.291 198.408C199.381 198.499 199.451 198.605 199.499 198.728C199.552 198.851 199.579 198.981 199.579 199.12C199.579 199.264 199.552 199.397 199.499 199.52C199.451 199.637 199.381 199.741 199.291 199.832C199.2 199.923 199.093 199.992 198.971 200.04C198.848 200.093 198.717 200.12 198.579 200.12C198.44 200.12 198.309 200.093 198.187 200.04C198.064 199.992 197.957 199.923 197.867 199.832C197.781 199.741 197.712 199.637 197.659 199.52C197.611 199.397 197.587 199.264 197.587 199.12Z" fill="white"/>
<defs>
<linearGradient id="paint0_linear_1326_72165" x1="98.2842" y1="55.4302" x2="146.143" y2="56.1247" gradientUnits="userSpaceOnUse">
<stop stop-color="#5182ED"/>
<stop offset="0.4" stop-color="#8875D3"/>
<stop offset="0.685" stop-color="#C4698D"/>
<stop offset="1" stop-color="#ED5A6F"/>
</linearGradient>
<linearGradient id="paint1_linear_1326_72165" x1="127.888" y1="74.0201" x2="140.52" y2="74.0652" gradientUnits="userSpaceOnUse">
<stop stop-color="#5182ED"/>
<stop offset="0.4" stop-color="#8875D3"/>
<stop offset="0.685" stop-color="#C4698D"/>
<stop offset="1" stop-color="#ED5A6F"/>
</linearGradient>
<linearGradient id="paint2_linear_1326_72165" x1="128.141" y1="97.0431" x2="140.388" y2="97.1847" gradientUnits="userSpaceOnUse">
<stop stop-color="#5182ED"/>
<stop offset="0.4" stop-color="#8875D3"/>
<stop offset="0.685" stop-color="#C4698D"/>
<stop offset="1" stop-color="#ED5A6F"/>
</linearGradient>
</defs>
</svg>
