<svg width="63" height="62" viewBox="0 0 63 62" fill="none" xmlns="http://www.w3.org/2000/svg">
<path d="M61.499 62H53.529C52.977 62 52.529 61.553 52.529 61C52.529 60.447 52.977 60 53.529 60H60.499V53.03C60.499 52.477 60.947 52.03 61.499 52.03C62.051 52.03 62.499 52.477 62.499 53.03V61C62.499 61.553 62.051 62 61.499 62ZM9.47098 62H1.50098C0.948976 62 0.500977 61.553 0.500977 61V53.03C0.500977 52.477 0.948976 52.03 1.50098 52.03C2.05298 52.03 2.50098 52.477 2.50098 53.03V60H9.47098C10.023 60 10.471 60.447 10.471 61C10.471 61.553 10.023 62 9.47098 62ZM61.499 9.971C60.947 9.971 60.499 9.524 60.499 8.971V2H53.529C52.977 2 52.529 1.553 52.529 1C52.529 0.447 52.977 0 53.529 0H61.499C62.051 0 62.499 0.447 62.499 1V8.971C62.499 9.523 62.051 9.971 61.499 9.971ZM1.50098 9.971C0.948976 9.971 0.500977 9.524 0.500977 8.971V1C0.500977 0.447 0.948976 0 1.50098 0H9.47098C10.023 0 10.471 0.447 10.471 1C10.471 1.553 10.023 2 9.47098 2H2.50098V8.971C2.50098 9.523 2.05298 9.971 1.50098 9.971Z" fill="url(#paint0_linear_1326_72150)"/>
<path d="M35.7104 34.0697C34.1014 34.0697 32.5094 33.7857 31.0104 33.2447L35.4864 39.8267C35.7014 40.1437 35.7244 40.5557 35.5454 40.8937C35.3664 41.2317 35.0134 41.4447 34.6294 41.4447H28.4004V53.5267H52.3334V29.5957H45.9004C43.2844 32.4457 39.5974 34.0697 35.7104 34.0697Z" fill="url(#paint1_linear_1326_72150)"/>
<path d="M5.33398 39.3715H32.672L19.005 19.2715L5.33398 39.3715Z" fill="url(#paint2_linear_1326_72150)"/>
<path d="M35.7104 34.0697C34.1014 34.0697 32.5094 33.7857 31.0104 33.2447L35.4864 39.8267C35.7014 40.1437 35.7244 40.5557 35.5454 40.8937C35.3664 41.2317 35.0134 41.4447 34.6294 41.4447H28.4004V53.5267H52.3334V29.5957H45.9004C43.2844 32.4457 39.5974 34.0697 35.7104 34.0697Z" fill="url(#paint3_linear_1326_72150)"/>
<path d="M35.7103 8.46875C29.2243 8.46875 23.9473 13.7467 23.9473 20.2367C23.9473 21.3667 24.1073 22.4847 24.4243 23.5607L28.4653 29.5028C30.5513 31.1357 33.0533 31.9988 35.7103 31.9988C42.1983 31.9988 47.4763 26.7227 47.4763 20.2358C47.4773 13.7468 42.1983 8.46875 35.7103 8.46875Z" fill="url(#paint4_linear_1326_72150)"/>
<defs>
<linearGradient id="paint0_linear_1326_72150" x1="0.500976" y1="31" x2="37.3978" y2="31.2054" gradientUnits="userSpaceOnUse">
<stop stop-color="#5182ED"/>
<stop offset="0.4" stop-color="#8875D3"/>
<stop offset="0.685" stop-color="#C4698D"/>
<stop offset="1" stop-color="#ED5A6F"/>
</linearGradient>
<linearGradient id="paint1_linear_1326_72150" x1="28.4004" y1="41.5612" x2="42.6436" y2="41.6405" gradientUnits="userSpaceOnUse">
<stop stop-color="#5182ED"/>
<stop offset="0.4" stop-color="#8875D3"/>
<stop offset="0.685" stop-color="#C4698D"/>
<stop offset="1" stop-color="#ED5A6F"/>
</linearGradient>
<linearGradient id="paint2_linear_1326_72150" x1="5.33398" y1="29.3215" x2="21.6032" y2="29.4447" gradientUnits="userSpaceOnUse">
<stop stop-color="#5182ED"/>
<stop offset="0.4" stop-color="#8875D3"/>
<stop offset="0.685" stop-color="#C4698D"/>
<stop offset="1" stop-color="#ED5A6F"/>
</linearGradient>
<linearGradient id="paint3_linear_1326_72150" x1="28.4004" y1="41.5612" x2="42.6436" y2="41.6405" gradientUnits="userSpaceOnUse">
<stop stop-color="#5182ED"/>
<stop offset="0.4" stop-color="#8875D3"/>
<stop offset="0.685" stop-color="#C4698D"/>
<stop offset="1" stop-color="#ED5A6F"/>
</linearGradient>
<linearGradient id="paint4_linear_1326_72150" x1="23.9473" y1="20.2338" x2="37.9501" y2="20.3117" gradientUnits="userSpaceOnUse">
<stop stop-color="#5182ED"/>
<stop offset="0.4" stop-color="#8875D3"/>
<stop offset="0.685" stop-color="#C4698D"/>
<stop offset="1" stop-color="#ED5A6F"/>
</linearGradient>
</defs>
</svg>
