<svg width="24" height="23" viewBox="0 0 24 23" fill="none" xmlns="http://www.w3.org/2000/svg">
<path d="M5.86727 7.38672H1.24175C1.03646 7.38672 0.870117 7.55313 0.870117 7.75835V22.6182C0.870117 22.8235 1.03646 22.9898 1.24175 22.9898H5.86727C6.07256 22.9898 6.2389 22.8235 6.2389 22.6182V7.75835C6.2389 7.55313 6.07256 7.38672 5.86727 7.38672Z" fill="url(#paint0_linear_1569_16476)"/>
<path d="M3.55227 0C1.86923 0 0.5 1.36775 0.5 3.04893C0.5 4.73085 1.86923 6.09911 3.55227 6.09911C5.23397 6.09911 6.60208 4.73077 6.60208 3.04893C6.60216 1.36775 5.23397 0 3.55227 0Z" fill="url(#paint1_linear_1569_16476)"/>
<path d="M17.6277 7.02734C15.7699 7.02734 14.3966 7.82598 13.5636 8.73342V7.7683C13.5636 7.56309 13.3973 7.39667 13.192 7.39667H8.76225C8.55697 7.39667 8.39062 7.56309 8.39062 7.7683V22.6281C8.39062 22.8334 8.55697 22.9998 8.76225 22.9998H13.3777C13.583 22.9998 13.7493 22.8334 13.7493 22.6281V15.276C13.7493 12.7985 14.4222 11.8333 16.1493 11.8333C18.0302 11.8333 18.1796 13.3806 18.1796 15.4034V22.6282C18.1796 22.8335 18.346 22.9998 18.5513 22.9998H23.1684C23.3737 22.9998 23.54 22.8335 23.54 22.6282V14.4773C23.54 10.7934 22.8376 7.02734 17.6277 7.02734Z" fill="url(#paint2_linear_1569_16476)"/>
<defs>
<linearGradient id="paint0_linear_1569_16476" x1="0.870117" y1="15.1883" x2="8.88664" y2="16.0307" gradientUnits="userSpaceOnUse">
<stop stop-color="#5182ED"/>
<stop offset="0.4" stop-color="#8875D3"/>
<stop offset="0.685" stop-color="#C4698D"/>
<stop offset="1" stop-color="#ED5A6F"/>
</linearGradient>
<linearGradient id="paint1_linear_1569_16476" x1="0.5" y1="3.04956" x2="8.92537" y2="5.62413" gradientUnits="userSpaceOnUse">
<stop stop-color="#5182ED"/>
<stop offset="0.4" stop-color="#8875D3"/>
<stop offset="0.685" stop-color="#C4698D"/>
<stop offset="1" stop-color="#ED5A6F"/>
</linearGradient>
<linearGradient id="paint2_linear_1569_16476" x1="8.39062" y1="15.0136" x2="29.4905" y2="21.1259" gradientUnits="userSpaceOnUse">
<stop stop-color="#5182ED"/>
<stop offset="0.4" stop-color="#8875D3"/>
<stop offset="0.685" stop-color="#C4698D"/>
<stop offset="1" stop-color="#ED5A6F"/>
</linearGradient>
</defs>
</svg>
