<svg width="30" height="30" viewBox="0 0 30 30" fill="none" xmlns="http://www.w3.org/2000/svg">
<rect x="0.5" y="0.5" width="29" height="29" rx="14.5" stroke="white"/>
<path d="M15 7C15.3125 7 15.5807 7.11198 15.8047 7.33594C16.0286 7.5599 16.1406 7.82812 16.1406 8.14062V21.8594C16.1406 22.1719 16.0286 22.4401 15.8047 22.6641C15.5807 22.888 15.3125 23 15 23C14.6875 23 14.4193 22.888 14.1953 22.6641C13.9714 22.4401 13.8594 22.1719 13.8594 21.8594V8.14062C13.8594 7.82812 13.9714 7.5599 14.1953 7.33594C14.4193 7.11198 14.6875 7 15 7ZM23 15C23 15.3125 22.888 15.5807 22.6641 15.8047C22.4401 16.0286 22.1719 16.1406 21.8594 16.1406H8.14062C7.82812 16.1406 7.5599 16.0286 7.33594 15.8047C7.11198 15.5807 7 15.3125 7 15C7 14.6875 7.11198 14.4193 7.33594 14.1953C7.5599 13.9714 7.82812 13.8594 8.14062 13.8594H21.8594C22.1719 13.8594 22.4401 13.9714 22.6641 14.1953C22.888 14.4193 23 14.6875 23 15Z" fill="white"/>
</svg>
