<svg width="79" height="62" viewBox="0 0 79 62" fill="none" xmlns="http://www.w3.org/2000/svg">
<path d="M45.995 28.7442C45.9963 29.1666 46.1647 29.5713 46.4633 29.8699C46.762 30.1686 47.1667 30.337 47.5891 30.3383H56.3792C56.802 30.3383 57.2075 30.1703 57.5064 29.8714C57.8054 29.5724 57.9734 29.167 57.9734 28.7442C57.9734 28.3214 57.8054 27.9159 57.5064 27.617C57.2075 27.318 56.802 27.15 56.3792 27.15H54.9204C55.1328 27.1549 55.344 27.1173 55.5416 27.0393C55.7392 26.9614 55.9192 26.8448 56.0711 26.6963C56.223 26.5479 56.3437 26.3705 56.4261 26.1748C56.5085 25.979 56.5509 25.7687 56.5509 25.5563C56.5509 25.3439 56.5085 25.1337 56.4261 24.9379C56.3437 24.7421 56.223 24.5648 56.0711 24.4163C55.9192 24.2679 55.7392 24.1512 55.5416 24.0733C55.344 23.9954 55.1328 23.9578 54.9204 23.9626H49.0479C48.8355 23.9578 48.6244 23.9954 48.4268 24.0733C48.2292 24.1512 48.0491 24.2679 47.8972 24.4163C47.7453 24.5648 47.6246 24.7421 47.5422 24.9379C47.4598 25.1337 47.4174 25.3439 47.4174 25.5563C47.4174 25.7687 47.4598 25.979 47.5422 26.1748C47.6246 26.3705 47.7453 26.5479 47.8972 26.6963C48.0491 26.8448 48.2292 26.9614 48.4268 27.0393C48.6244 27.1173 48.8355 27.1549 49.0479 27.15H47.5891C47.1667 27.1514 46.762 27.3197 46.4633 27.6184C46.1647 27.9171 45.9963 28.3218 45.995 28.7442ZM52.0161 26.0541H52.286C52.5715 26.0619 52.8427 26.1809 53.0419 26.3857C53.2411 26.5904 53.3526 26.8648 53.3526 27.1505C53.3526 27.4361 53.2411 27.7105 53.0419 27.9153C52.8427 28.12 52.5715 28.239 52.286 28.2468H52.0145C51.7289 28.239 51.4577 28.12 51.2585 27.9153C51.0593 27.7105 50.9478 27.4361 50.9478 27.1505C50.9478 26.8648 51.0593 26.5904 51.2585 26.3857C51.4577 26.1809 51.7289 26.0619 52.0145 26.0541H52.0161ZM58.2797 58.8225V61.1099C58.2799 61.2357 58.198 61.3507 58.0747 61.3759C56.0851 61.7828 54.0598 61.9919 52.0286 62C47.3633 61.9552 41.7257 60.9962 38.4171 57.7282C30.3444 49.7569 36.2585 38.9781 42.7661 33.2615C44.0142 32.1651 45.9278 32.5323 47.5891 32.5311H56.3792C56.5859 32.5312 56.7909 32.5143 56.9923 32.4812C58.3009 32.2663 59.7964 32.008 60.8153 32.8567C61.0954 33.09 61.3707 33.329 61.6409 33.5735C62.7426 34.5701 62.2591 36.3191 60.8419 36.7646C60.3055 36.9341 59.8582 37.3095 59.5981 37.8083C59.338 38.3072 59.2864 38.8888 59.4546 39.4257L60.1404 41.6076C60.309 42.1437 60.6835 42.591 61.1817 42.8512C61.6799 43.1113 62.2609 43.163 62.7972 42.995L66.8095 41.7345C67.3098 41.5773 67.8529 41.8066 68.0645 42.2864C68.3616 42.9596 67.8491 43.6883 67.1132 43.6883H64.6828C64.1203 43.6889 63.581 43.9126 63.1832 44.3103C62.7854 44.708 62.5615 45.2471 62.5606 45.8096C62.5606 47.0335 61.5685 48.0256 60.3446 48.0256H58.1851C57.8458 48.0261 57.5116 48.1079 57.2106 48.2642C56.8976 48.4266 56.3447 48.2713 56.2204 47.9414C55.9953 47.344 55.6292 46.8043 55.1471 46.3712C54.4117 45.7103 53.4582 45.3442 52.4695 45.343H51.498C51.0165 45.343 50.5546 45.1517 50.2141 44.8112C49.8735 44.4707 49.6822 44.0088 49.6822 43.5272C49.6822 43.0456 49.8735 42.5838 50.2141 42.2432C50.5546 41.9027 51.0165 41.7114 51.498 41.7114H52.4695C52.9509 41.7118 53.4125 41.9033 53.7529 42.2437C54.0934 42.5842 54.2848 43.0458 54.2853 43.5272C54.2931 43.8128 54.4121 44.084 54.6168 44.2832C54.8216 44.4824 55.096 44.5938 55.3816 44.5938C55.6673 44.5938 55.9417 44.4824 56.1465 44.2832C56.3512 44.084 56.4702 43.8128 56.478 43.5272C56.4769 42.5702 56.134 41.6451 55.5111 40.9187C55.1793 40.5318 54.7798 40.2148 54.3359 39.9808C53.6596 39.6242 53.0805 39.0013 53.0805 38.2367C53.0846 38.0902 53.0592 37.9443 53.0059 37.8078C52.9526 37.6713 52.8725 37.5468 52.7703 37.4417C52.6681 37.3367 52.5459 37.2532 52.4108 37.1961C52.2758 37.1391 52.1307 37.1097 51.9842 37.1097C51.8376 37.1097 51.6925 37.1391 51.5575 37.1961C51.4225 37.2532 51.3002 37.3367 51.198 37.4417C51.0958 37.5468 51.0157 37.6713 50.9624 37.8078C50.9091 37.9443 50.8838 38.0902 50.8878 38.2367C50.8878 39.0009 50.3082 39.6233 49.6318 39.9788C49.1421 40.2361 48.7068 40.5942 48.3569 41.0349C47.7287 41.8263 47.4226 42.8257 47.4997 43.8332C47.5768 44.8407 48.0316 45.7819 48.7729 46.4684C49.5143 47.1549 50.4876 47.5362 51.498 47.5358H52.4695C52.9444 47.5459 53.3965 47.7417 53.7288 48.0812C54.0612 48.4208 54.2473 48.8769 54.2473 49.352C54.2473 49.8271 54.0612 50.2833 53.7288 50.6228C53.3965 50.9623 52.9444 51.1581 52.4695 51.1682H51.498C51.0161 51.1676 50.5541 50.9756 50.2136 50.6345C49.8731 50.2934 49.682 49.8311 49.6822 49.3491C49.6744 49.0635 49.5554 48.7923 49.3507 48.5931C49.1459 48.3939 48.8715 48.2825 48.5858 48.2825C48.3002 48.2825 48.0258 48.3939 47.821 48.5931C47.6163 48.7923 47.4973 49.0635 47.4895 49.3491C47.4906 50.3063 47.8336 51.2316 48.4567 51.9582C48.7886 52.3452 49.1883 52.6623 49.6324 52.8964C50.3087 53.2529 50.8878 53.8759 50.8878 54.6404C50.8838 54.787 50.9091 54.9328 50.9624 55.0693C51.0157 55.2059 51.0958 55.3304 51.198 55.4354C51.3002 55.5405 51.4225 55.624 51.5575 55.681C51.6925 55.738 51.8376 55.7674 51.9842 55.7674C52.1307 55.7674 52.2758 55.738 52.4108 55.681C52.5459 55.624 52.6681 55.5405 52.7703 55.4354C52.8725 55.3304 52.9526 55.2059 53.0059 55.0693C53.0592 54.9328 53.0846 54.787 53.0805 54.6404C53.0805 53.8757 53.6593 53.2525 54.3357 52.8957C54.5105 52.8034 54.6788 52.6982 54.8391 52.5805C55.0041 52.4593 55.1591 52.3261 55.3029 52.1823C55.5321 51.9531 56.0637 52.1086 56.0637 52.4327C56.0644 52.9952 56.2881 53.5344 56.6858 53.932C57.0835 54.3297 57.6227 54.5534 58.1851 54.5541C58.2373 54.5541 58.2797 54.5965 58.2797 54.6488V56.7718C58.279 57.4376 58.2791 58.1567 58.2797 58.8225ZM48.9649 15.9397C48.9453 15.3442 49.1438 14.7621 49.5231 14.3026C49.9023 13.843 50.4362 13.5377 51.0246 13.444C51.613 13.3502 52.2153 13.4744 52.7186 13.7933C53.2219 14.1122 53.5915 14.6038 53.758 15.1758C53.8394 15.4549 54.0283 15.6903 54.2832 15.8301C54.5381 15.9699 54.8381 16.0028 55.1172 15.9214C55.3963 15.84 55.6317 15.6511 55.7715 15.3962C55.9113 15.1414 55.9442 14.8414 55.8628 14.5622C55.6226 13.7349 55.9883 12.6415 56.8216 12.8604C58.6656 13.345 58.9462 16.1042 57.0832 20.6517C56.7522 21.4595 55.7967 21.7695 54.9238 21.7699H49.0479C48.1231 21.7691 47.1149 21.5195 46.6315 20.7311C46.2475 20.1049 45.9188 19.5775 45.5956 19.1047C44.5796 17.6191 44.7055 15.9889 45.6263 15.134C46.1426 14.6546 46.7478 15.3077 46.7713 16.0119C46.7808 16.2961 46.9002 16.5656 47.1046 16.7634C47.3089 16.9612 47.582 17.0719 47.8664 17.0722H47.9029C48.0471 17.0677 48.1889 17.0348 48.3203 16.9754C48.4517 16.916 48.5701 16.8313 48.6688 16.7261C48.7674 16.6209 48.8443 16.4973 48.8951 16.3624C48.9459 16.2274 48.9696 16.0838 48.9649 15.9397ZM28.9204 26.617C29.0594 26.7565 29.1539 26.934 29.1921 27.1272C29.2302 27.3204 29.2103 27.5205 29.1348 27.7024C29.0593 27.8842 28.9316 28.0396 28.7678 28.149C28.604 28.2583 28.4116 28.3166 28.2146 28.3166C28.0177 28.3166 27.8252 28.2583 27.6615 28.149C27.4977 28.0396 27.37 27.8842 27.2945 27.7024C27.219 27.5205 27.199 27.3204 27.2372 27.1272C27.2754 26.934 27.3699 26.7565 27.5089 26.617C27.6015 26.5241 27.7115 26.4504 27.8326 26.4001C27.9537 26.3499 28.0835 26.324 28.2146 26.324C28.3458 26.324 28.4756 26.3499 28.5967 26.4001C28.7178 26.4504 28.8278 26.5241 28.9204 26.617ZM45.026 22.3079C45.0268 22.3079 45.0272 22.3071 45.0268 22.3065C44.5374 21.5059 44.1507 20.8737 43.7881 20.3426C43.1921 19.5403 42.8261 18.5907 42.7295 17.5958C42.633 16.601 42.8095 15.5987 43.2401 14.6968C43.5719 14.0668 43.6221 13.2646 43.125 12.7549C43.0688 12.6973 43.0122 12.64 42.9553 12.5829C40.5316 10.1607 37.548 8.37348 34.2687 7.37958C30.9894 6.38568 27.5156 6.21573 24.1549 6.88478C20.7943 7.55384 17.6504 9.04125 15.0018 11.2153C12.3532 13.3894 10.2816 16.183 8.97031 19.3488C7.65905 22.5146 7.14864 25.9548 7.4843 29.365C7.81996 32.7751 8.99131 36.0498 10.8946 38.8992C12.798 41.7486 15.3745 44.0847 18.3962 45.7006C21.4179 47.3166 24.7914 48.1625 28.218 48.1635C29.3584 48.164 30.4966 48.0717 31.6212 47.8878C32.0538 47.817 32.3686 47.4508 32.4167 47.0152C32.9705 43.1438 34.5247 39.4838 36.9259 36.3968C38.692 34.0003 40.8052 31.8824 43.1947 30.1121C43.6159 29.8001 43.7994 29.2684 43.7997 28.7442C43.7994 28.1673 43.9312 27.598 44.1849 27.0799C44.4092 26.6218 44.7236 26.2145 45.1086 25.882C45.2034 25.8001 45.2577 25.6803 45.2577 25.5551C45.2569 24.9888 45.3836 24.4314 45.6264 23.9234C45.7278 23.7111 45.7314 23.4603 45.6082 23.2599C45.3967 22.9156 45.2028 22.5996 45.0252 22.3093C45.0249 22.3087 45.0253 22.3079 45.026 22.3079ZM27.1187 8.00142C27.1187 7.71075 27.2341 7.43199 27.4397 7.22645C27.6452 7.02092 27.924 6.90545 28.2146 6.90545C28.5053 6.90545 28.7841 7.02092 28.9896 7.22645C29.1951 7.43199 29.3106 7.71075 29.3106 8.00142V9.72756C29.3106 10.0182 29.1951 10.297 28.9896 10.5025C28.7841 10.7081 28.5053 10.8235 28.2146 10.8235C27.924 10.8235 27.6452 10.7081 27.4397 10.5025C27.2341 10.297 27.1187 10.0182 27.1187 9.72756V8.00142ZM10.6186 28.4187H8.89248C8.60693 28.4108 8.33571 28.2919 8.13651 28.0871C7.93732 27.8824 7.82587 27.608 7.82587 27.3223C7.82587 27.0367 7.93732 26.7623 8.13651 26.5575C8.33571 26.3528 8.60693 26.2338 8.89248 26.2259H10.6186C10.9042 26.2338 11.1754 26.3528 11.3746 26.5575C11.5738 26.7623 11.6852 27.0367 11.6852 27.3223C11.6852 27.608 11.5738 27.8824 11.3746 28.0871C11.1754 28.2919 10.9042 28.4108 10.6186 28.4187ZM16.5476 40.5407L15.3271 41.7612C15.1216 41.9668 14.8428 42.0823 14.5521 42.0823C14.2613 42.0823 13.9825 41.9668 13.777 41.7612C13.5714 41.5557 13.456 41.2769 13.456 40.9862C13.456 40.6955 13.5714 40.4167 13.777 40.2111L14.9975 38.9906C15.2031 38.785 15.4819 38.6695 15.7726 38.6695C16.0633 38.6695 16.3421 38.785 16.5476 38.9906C16.7532 39.1961 16.8687 39.4749 16.8687 39.7657C16.8687 40.0564 16.7532 40.3352 16.5476 40.5407ZM16.5476 15.6566C16.4459 15.7584 16.3251 15.8393 16.1921 15.8944C16.0591 15.9496 15.9165 15.978 15.7726 15.978C15.6286 15.978 15.486 15.9496 15.353 15.8944C15.22 15.8393 15.0992 15.7584 14.9975 15.6566L13.777 14.436C13.6752 14.3343 13.5945 14.2134 13.5394 14.0804C13.4843 13.9475 13.456 13.8049 13.456 13.661C13.456 13.517 13.4843 13.3745 13.5394 13.2415C13.5945 13.1085 13.6752 12.9877 13.777 12.8859C13.8788 12.7841 13.9996 12.7034 14.1326 12.6483C14.2656 12.5932 14.4081 12.5649 14.5521 12.5649C14.696 12.5649 14.8385 12.5932 14.9715 12.6483C15.1045 12.7034 15.2253 12.7841 15.3271 12.8859L16.5476 14.1056C16.753 14.3112 16.8684 14.59 16.8684 14.8807C16.8684 15.1713 16.753 15.4509 16.5476 15.6566ZM29.3106 46.6441C29.3106 46.9347 29.1951 47.2135 28.9896 47.419C28.7841 47.6246 28.5053 47.74 28.2146 47.74C27.924 47.74 27.6452 47.6246 27.4397 47.419C27.2341 47.2135 27.1187 46.9347 27.1187 46.6441V44.9188C27.1187 44.6281 27.2341 44.3493 27.4397 44.1438C27.6452 43.9383 27.924 43.8228 28.2146 43.8228C28.5053 43.8228 28.7841 43.9383 28.9896 44.1438C29.1951 44.3493 29.3106 44.6281 29.3106 44.9188V46.6441ZM37.622 19.4675C37.6207 19.4675 37.6195 19.468 37.6186 19.469L32.239 24.8492C31.5594 25.5288 31.4618 26.5789 31.3985 27.5378C31.3631 28.073 31.1934 28.5906 30.9051 29.0429C30.6168 29.4951 30.2192 29.8674 29.7489 30.1253C29.2786 30.3832 28.751 30.5183 28.2146 30.5183C27.6783 30.5183 27.1506 30.3832 26.6804 30.1253C26.2101 29.8674 25.8125 29.4951 25.5242 29.0429C25.2358 28.5906 25.0662 28.073 25.0308 27.5378C24.9675 26.5788 24.87 25.5288 24.1906 24.8489L17.2484 17.9024C17.1466 17.8007 17.0658 17.6798 17.0108 17.5468C16.9557 17.4139 16.9273 17.2713 16.9273 17.1274C16.9273 16.9834 16.9557 16.8409 17.0108 16.7079C17.0658 16.5749 17.1466 16.4541 17.2484 16.3523C17.3502 16.2505 17.471 16.1698 17.604 16.1147C17.737 16.0596 17.8795 16.0313 18.0234 16.0313C18.1674 16.0313 18.3099 16.0596 18.4429 16.1147C18.5759 16.1698 18.6967 16.2505 18.7985 16.3523L25.8974 23.4505C26.4855 24.0385 27.3871 24.132 28.2188 24.132C29.0505 24.132 29.9521 24.0385 30.5402 23.4504L36.074 17.9166C36.2815 17.72 36.5575 17.6123 36.8433 17.6162C37.129 17.6201 37.402 17.7354 37.604 17.9375C37.806 18.1397 37.9211 18.4127 37.9249 18.6984C37.9287 18.9835 37.8213 19.2588 37.6256 19.466C37.6247 19.467 37.6234 19.4675 37.622 19.4675ZM41.4318 15.6557C41.2243 15.8522 40.9483 15.96 40.6625 15.9561C40.3768 15.9522 40.1039 15.8369 39.9018 15.6347C39.6998 15.4326 39.5847 15.1596 39.5809 14.8738C39.5771 14.5881 39.685 14.3122 39.8817 14.1048L41.1022 12.8843C41.204 12.7823 41.3249 12.7014 41.458 12.6462C41.5911 12.591 41.7338 12.5625 41.8779 12.5625C42.022 12.5624 42.1647 12.5907 42.2978 12.6458C42.431 12.7008 42.552 12.7816 42.6539 12.8834C42.7559 12.9853 42.8368 13.1062 42.892 13.2393C42.9472 13.3724 42.9757 13.5151 42.9757 13.6592C42.9758 13.8032 42.9475 13.946 42.8924 14.0791C42.8374 14.2123 42.7566 14.3333 42.6548 14.4352L41.4318 15.6557ZM30.3435 50.2605C31.4327 50.1605 32.4331 50.9345 32.6807 51.9999C32.9457 53.1407 32.2933 54.3664 31.1287 54.4912C27.2136 54.9111 23.2444 54.4807 19.4957 53.2184C15.0293 51.7145 11.0279 49.0809 7.88007 45.5734C4.73228 42.066 2.54522 37.804 1.53136 33.2016C0.517501 28.5991 0.711321 23.8126 2.09399 19.3072C3.47666 14.8018 6.00116 10.7306 9.42223 7.48915C12.8433 4.24771 17.0446 1.94626 21.618 0.808375C26.1914 -0.329507 30.9813 -0.265125 35.5225 0.995266C40.0636 2.25566 44.2016 4.6692 47.5343 8.00142C48.2015 8.66936 48.8341 9.37087 49.4297 10.1032C49.5453 10.2453 49.4816 10.4611 49.3094 10.5238C49.2629 10.5421 49.2156 10.562 49.1666 10.5827L49.1442 10.5919C49.0711 10.6226 48.9997 10.6541 48.9408 10.6824C48.8254 10.7372 48.7091 10.797 48.578 10.8708L48.4783 10.929C48.3521 11.0037 48.2292 11.0826 48.1113 11.1648L48.1022 11.1706C47.7436 11.4226 47.4156 11.7149 47.1247 12.0415C46.9529 12.2344 46.7182 12.3608 46.4635 12.4029C46.1043 12.4622 45.7294 12.3557 45.4885 12.0828C45.1724 11.7245 44.8441 11.3741 44.503 11.0336C41.8243 8.35515 38.5264 6.37868 34.9014 5.27921C31.2764 4.17974 27.4362 3.99122 23.7209 4.73035C20.0057 5.46947 16.53 7.11343 13.6018 9.51661C10.6737 11.9198 8.38336 15.008 6.93376 18.5077C5.48415 22.0075 4.92001 25.8107 5.29129 29.5805C5.66257 33.3503 6.95781 36.9704 9.0623 40.1201C11.1668 43.2698 14.0156 45.8519 17.3563 47.6376C20.697 49.4234 24.4266 50.3577 28.2146 50.3579C28.9257 50.358 29.6361 50.3255 30.3435 50.2605ZM61.8894 39.858C61.7117 39.2932 62.0255 38.6913 62.5904 38.5137L73.2832 35.1511C73.8484 34.9733 74.4506 35.2874 74.6283 35.8526C74.8059 36.4177 74.4918 37.0199 73.9267 37.1976L63.2334 40.5589C62.6687 40.7364 62.0671 40.4227 61.8894 39.858ZM71.6123 51.2886C71.6132 51.8817 71.1327 52.363 70.5396 52.363H59.3292C58.7367 52.363 58.2565 51.8827 58.2565 51.2903C58.2565 50.6978 58.7367 50.2176 59.3292 50.2176H70.5396C71.1314 50.2176 71.6114 50.6968 71.6123 51.2886ZM60.4725 59.9696C60.4725 59.3773 60.9526 58.8973 61.5448 58.8973H72.7535C73.3457 58.8973 73.8258 59.3773 73.8258 59.9696C73.8258 60.5618 73.3457 61.0419 72.7535 61.0419H61.5448C60.9526 61.0419 60.4725 60.5618 60.4725 59.9696ZM71.6812 54.5591H72.7531C73.3455 54.5591 73.8258 55.0393 73.8258 55.6318C73.8258 56.2242 73.3455 56.7045 72.7531 56.7045H61.5467C60.9534 56.7045 60.4725 56.2236 60.4725 55.6303C60.4725 55.0369 60.9536 54.5559 61.547 54.5561L71.6812 54.5591ZM77.0352 45.8802C77.6274 45.8802 78.1075 46.3603 78.1075 46.9525C78.1075 47.5447 77.6274 48.0248 77.0352 48.0248H65.8257C65.2335 48.0248 64.7534 47.5447 64.7534 46.9525C64.7534 46.3603 65.2335 45.8802 65.8257 45.8802H77.0352Z" fill="url(#paint0_linear_1326_72173)"/>
<defs>
<linearGradient id="paint0_linear_1326_72173" x1="0.891601" y1="31" x2="46.8443" y2="31.3187" gradientUnits="userSpaceOnUse">
<stop stop-color="#5182ED"/>
<stop offset="0.4" stop-color="#8875D3"/>
<stop offset="0.685" stop-color="#C4698D"/>
<stop offset="1" stop-color="#ED5A6F"/>
</linearGradient>
</defs>
</svg>
