<svg width="23" height="24" viewBox="0 0 23 24" fill="none" xmlns="http://www.w3.org/2000/svg">
<path d="M15.7889 8.71055L9.47374 15.0257L6.22348 11.7878C6.08342 11.6477 5.91452 11.5777 5.71679 11.5777C5.51905 11.5777 5.35015 11.6477 5.21009 11.7878C5.07003 11.9278 5 12.0967 5 12.2945C5 12.4922 5.07003 12.6611 5.21009 12.8012L8.96704 16.5458C9.03296 16.6117 9.10917 16.6632 9.19567 16.7002C9.28218 16.7373 9.37487 16.7559 9.47374 16.7559C9.56437 16.7559 9.65294 16.7373 9.73944 16.7002C9.82595 16.6632 9.90216 16.6117 9.96807 16.5458L16.7899 9.72393C16.93 9.58387 17 9.41497 17 9.21724C17 9.01951 16.93 8.85061 16.7899 8.71055C16.6498 8.57048 16.4809 8.50045 16.2832 8.50045C16.0855 8.50045 15.9207 8.57048 15.7889 8.71055Z" fill="white"/>
</svg>
