<svg width="63" height="62" viewBox="0 0 63 62" fill="none" xmlns="http://www.w3.org/2000/svg">
<path fill-rule="evenodd" clip-rule="evenodd" d="M44.1 18.4081C41.1858 15.494 37.3513 13.6806 33.2498 13.2767C29.1484 12.8728 25.0338 13.9036 21.6071 16.1933C18.1805 18.483 15.6537 21.89 14.4575 25.8339C13.2612 29.7777 13.4694 34.0143 15.0465 37.8218C16.6237 41.6294 19.4723 44.7723 23.107 46.715C26.7416 48.6577 30.9374 49.2801 34.9795 48.4761C39.0216 47.6721 42.6598 45.4914 45.2743 42.3056C47.8889 39.1198 49.3179 35.126 49.3179 31.0048C49.3209 28.6649 48.8615 26.3475 47.966 24.1858C47.0706 22.024 45.7567 20.0605 44.1 18.4081ZM31.5034 11.4328C36.0313 11.4326 40.4193 13.0024 43.9195 15.8748C47.4198 18.7472 49.8158 22.7443 50.6993 27.1853C51.5827 31.6262 50.8991 36.236 48.7647 40.2294C46.6304 44.2227 43.1774 47.3525 38.9941 49.0853C34.8109 50.8182 30.1562 51.0469 25.8232 49.7326C21.4903 48.4183 17.747 45.6422 15.2314 41.8774C12.7158 38.1125 11.5834 33.5919 12.0272 29.0858C12.471 24.5796 14.4635 20.3668 17.6652 17.165C19.4806 15.3452 21.6376 13.9019 24.0124 12.9182C26.3872 11.9345 28.9329 11.4297 31.5034 11.4328ZM24.3357 34.5112C24.3362 34.5112 24.3367 34.511 24.337 34.5107C25.277 33.5677 26.3941 32.8199 27.6241 32.3101C28.8544 31.8003 30.1733 31.5387 31.505 31.5403C34.0415 31.5404 36.4858 32.4915 38.3553 34.2058C39.1398 34.9252 39.7992 35.7571 40.3165 36.6671C41.4757 38.7062 39.5863 40.8002 37.2407 40.8002H25.7621C23.4179 40.8002 21.5287 38.7083 22.6873 36.6705C23.1335 35.8857 23.686 35.1587 24.3344 34.5118C24.3347 34.5114 24.3352 34.5112 24.3357 34.5112ZM34.5353 22.465C35.1346 23.0647 35.5427 23.8287 35.7079 24.6603C35.8732 25.4919 35.7882 26.3539 35.4637 27.1372C35.1392 27.9205 34.5898 28.5901 33.8849 29.0612C33.18 29.5324 32.3513 29.7841 31.5034 29.7844C30.7983 29.7843 30.1042 29.6104 29.4824 29.278C28.8606 28.9456 28.3304 28.465 27.9387 27.8787C27.547 27.2925 27.306 26.6187 27.2369 25.917C27.1678 25.2153 27.2728 24.5075 27.5427 23.8561C27.8125 23.2047 28.2388 22.6299 28.7838 22.1826C29.3288 21.7353 29.9757 21.4294 30.6672 21.2918C31.3587 21.1542 32.0735 21.1893 32.7482 21.394C33.4229 21.5986 34.0367 21.9665 34.5353 22.465ZM31.5034 19.4511C32.7732 19.4522 34.0104 19.853 35.0396 20.5967C36.0688 21.3403 36.8379 22.3891 37.2377 23.5942C37.6375 24.7994 37.6478 26.0999 37.2672 27.3113C36.793 28.8204 37.1936 31.1129 38.4749 32.0406C39.4776 32.7666 40.3671 33.649 41.1065 34.661C42.595 36.6986 43.3977 39.1563 43.3988 41.6797C43.3988 41.9128 43.3062 42.1363 43.1414 42.3011C42.9766 42.4659 42.7531 42.5585 42.52 42.5585H20.4868C20.2538 42.5585 20.0302 42.4659 19.8654 42.3011C19.7006 42.1363 19.608 41.9128 19.608 41.6797C19.6091 39.1563 20.4118 36.6986 21.9003 34.661C23.2162 32.8597 25.008 31.4692 27.0665 30.6402C27.4066 30.5033 27.4879 30.0301 27.2284 29.7711C26.3832 28.9255 25.8076 27.8483 25.5745 26.6757C25.3414 25.5031 25.4612 24.2877 25.9187 23.1831C26.3763 22.0786 27.1511 21.1345 28.1451 20.4702C29.1392 19.8059 30.3078 19.4512 31.5034 19.4511ZM37.3139 7.2516C37.3392 7.41904 37.4125 7.57556 37.5248 7.70224C37.6372 7.82891 37.7839 7.92032 37.9471 7.9654C39.7717 8.47795 41.5292 9.20462 43.183 10.1302C43.3269 10.2257 43.4958 10.2765 43.6685 10.2765C43.8412 10.2765 44.01 10.2257 44.154 10.1302L50.3194 6.04369C50.3206 6.04282 50.3218 6.04199 50.3231 6.0412C50.3463 6.02656 50.3788 6.03152 50.3968 6.05229L56.4606 12.1161C56.4811 12.134 56.4863 12.1665 56.4718 12.1896C56.471 12.1909 56.4701 12.1922 56.4692 12.1935L52.3818 18.3589C52.293 18.4931 52.2429 18.6492 52.2371 18.8101C52.2313 18.9709 52.27 19.1302 52.349 19.2705C53.2869 20.941 54.0218 22.7177 54.5381 24.5626C54.5812 24.7188 54.6668 24.8599 54.7854 24.9704C54.9039 25.0808 55.0508 25.1561 55.2097 25.1881L62.4571 26.6579C62.4706 26.6609 62.4825 26.6687 62.4907 26.6798C62.4993 26.6909 62.5035 26.7048 62.5025 26.7189V35.2923C62.5023 35.3069 62.4971 35.321 62.4876 35.3321C62.4794 35.3432 62.4674 35.351 62.454 35.354L55.248 36.8152C55.0805 36.8405 54.9239 36.9137 54.7972 37.0261C54.6706 37.1385 54.5792 37.2852 54.5342 37.4485C54.0225 39.2735 53.2972 41.0318 52.3732 42.6867C52.278 42.8306 52.2272 42.9993 52.2272 43.1718C52.2272 43.3443 52.278 43.5131 52.3732 43.6569L56.4483 49.8046C56.4565 49.8169 56.4671 49.8281 56.4717 49.8422C56.474 49.8493 56.4748 49.8568 56.4739 49.8642C56.4731 49.8716 56.4708 49.8787 56.467 49.8851C56.4594 49.8978 56.4467 49.9066 56.4363 49.917L50.3952 55.9604C50.3768 55.9794 50.3456 55.9828 50.3229 55.9692C50.3212 55.9681 50.3195 55.967 50.3178 55.9659L44.1524 51.8793C44.0181 51.7904 43.8619 51.7402 43.7009 51.7344C43.5399 51.7286 43.3804 51.7674 43.24 51.8465C41.5697 52.7842 39.7933 53.5191 37.9487 54.0356C37.7925 54.0787 37.6514 54.1643 37.5409 54.2828C37.4305 54.4014 37.3552 54.5483 37.3232 54.7071L35.8534 61.9546C35.8504 61.968 35.8426 61.98 35.8315 61.9882C35.82 61.9965 35.8059 62.0006 35.7917 61.9999H27.2159C27.207 62 27.1982 61.9989 27.1897 61.9965C27.1853 61.9953 27.1813 61.9929 27.1779 61.9899C27.1767 61.9888 27.1753 61.9878 27.174 61.9868C27.1715 61.985 27.1692 61.983 27.1671 61.9809C27.1578 61.9716 27.1544 61.9582 27.1518 61.9453L25.6945 54.7587C25.6693 54.5913 25.596 54.4347 25.4836 54.308C25.3712 54.1813 25.2245 54.0899 25.0612 54.0449C23.2376 53.533 21.4807 52.8077 19.827 51.884C19.6832 51.7884 19.5145 51.7373 19.3418 51.7373C19.1692 51.7373 19.0004 51.7884 18.8567 51.884L12.6921 55.969C12.691 55.9697 12.69 55.9704 12.6889 55.9711C12.6654 55.986 12.6328 55.9808 12.6139 55.9604L6.55014 49.8966C6.53086 49.8784 6.52756 49.8469 6.54132 49.8242C6.54236 49.8225 6.54347 49.8208 6.54466 49.8192L10.6312 43.653C10.7201 43.5188 10.7702 43.3627 10.776 43.2018C10.7818 43.041 10.743 42.8817 10.6641 42.7414C10.1912 41.9045 9.76933 41.0398 9.40064 40.152C9.03317 39.2697 8.71986 38.3658 8.46246 37.4454C8.41952 37.289 8.33388 37.1476 8.21513 37.0372C8.09637 36.9267 7.9492 36.8515 7.7901 36.8199L0.543432 35.3501C0.529818 35.3469 0.51769 35.3392 0.509032 35.3282C0.501428 35.3164 0.497611 35.3024 0.498087 35.2884V26.7165C0.498367 26.7023 0.503311 26.6886 0.512159 26.6774C0.520817 26.6664 0.532945 26.6587 0.546559 26.6555L7.75257 25.1935C7.92002 25.1686 8.07662 25.0955 8.20333 24.9832C8.33005 24.8709 8.42143 24.7243 8.46637 24.561C8.97742 22.7371 9.70279 20.9801 10.6273 19.3268C10.7228 19.183 10.7737 19.0142 10.7737 18.8417C10.7737 18.6691 10.7228 18.5003 10.6273 18.3565L6.53919 12.1903C6.53831 12.1891 6.53748 12.1878 6.53669 12.1866C6.52227 12.1633 6.52759 12.1314 6.54779 12.1129L12.6139 6.04916C12.6319 6.0284 12.6643 6.02361 12.6876 6.03811C12.6889 6.03889 12.6901 6.03971 12.6913 6.04056L18.8552 10.1302C18.9894 10.2191 19.1455 10.2692 19.3063 10.275C19.4672 10.2808 19.6265 10.2421 19.7668 10.1631C20.6024 9.69249 21.4658 9.27293 22.3522 8.90671C23.2345 8.53924 24.1384 8.22593 25.0589 7.96852C25.2152 7.92551 25.3566 7.83984 25.467 7.7211C25.5775 7.60235 25.6527 7.45522 25.6843 7.29616L27.1557 0.0448052C27.1587 0.0312225 27.1666 0.0191988 27.1778 0.010993C27.189 0.00278716 27.2029 -0.00103623 27.2167 0.000241449H35.7909C35.805 -0.000613876 35.819 0.00323482 35.8308 0.0111868C35.8416 0.0196853 35.8492 0.0314995 35.8526 0.0448052L37.3139 7.2516Z" fill="url(#paint0_linear_1326_72162)"/>
<defs>
<linearGradient id="paint0_linear_1326_72162" x1="0.498047" y1="31" x2="37.3988" y2="31.2055" gradientUnits="userSpaceOnUse">
<stop stop-color="#5182ED"/>
<stop offset="0.4" stop-color="#8875D3"/>
<stop offset="0.685" stop-color="#C4698D"/>
<stop offset="1" stop-color="#ED5A6F"/>
</linearGradient>
</defs>
</svg>
